<svg xmlns="http://www.w3.org/2000/svg" xmlns:xlink="http://www.w3.org/1999/xlink" width="600" height="400" viewBox="0 0 2400 1600">
<defs>
  <clipPath id="clip500">
    <rect x="0" y="0" width="2400" height="1600"></rect>
  </clipPath>
</defs>
<path clip-path="url(#clip500)" d="
M0 1600 L2400 1600 L2400 0 L0 0  Z
  " fill="#ffffff" fill-rule="evenodd" fill-opacity="1"></path>
<defs>
  <clipPath id="clip501">
    <rect x="480" y="0" width="1681" height="1600"></rect>
  </clipPath>
</defs>
<path clip-path="url(#clip500)" d="
M141.853 1486.45 L2352.76 1486.45 L2352.76 47.2441 L141.853 47.2441  Z
  " fill="#ffffff" fill-rule="evenodd" fill-opacity="1"></path>
<defs>
  <clipPath id="clip502">
    <rect x="141" y="47" width="2212" height="1440"></rect>
  </clipPath>
</defs>
<polyline clip-path="url(#clip502)" style="stroke:#000000; stroke-linecap:round; stroke-linejoin:round; stroke-width:2; stroke-opacity:0.1; fill:none" points="
  198.696,1486.45 198.696,47.2441 
  "></polyline>
<polyline clip-path="url(#clip502)" style="stroke:#000000; stroke-linecap:round; stroke-linejoin:round; stroke-width:2; stroke-opacity:0.1; fill:none" points="
  771.706,1486.45 771.706,47.2441 
  "></polyline>
<polyline clip-path="url(#clip502)" style="stroke:#000000; stroke-linecap:round; stroke-linejoin:round; stroke-width:2; stroke-opacity:0.1; fill:none" points="
  1344.72,1486.45 1344.72,47.2441 
  "></polyline>
<polyline clip-path="url(#clip502)" style="stroke:#000000; stroke-linecap:round; stroke-linejoin:round; stroke-width:2; stroke-opacity:0.1; fill:none" points="
  1917.73,1486.45 1917.73,47.2441 
  "></polyline>
<polyline clip-path="url(#clip500)" style="stroke:#000000; stroke-linecap:round; stroke-linejoin:round; stroke-width:4; stroke-opacity:1; fill:none" points="
  141.853,1486.45 2352.76,1486.45 
  "></polyline>
<polyline clip-path="url(#clip500)" style="stroke:#000000; stroke-linecap:round; stroke-linejoin:round; stroke-width:4; stroke-opacity:1; fill:none" points="
  198.696,1486.45 198.696,1467.55 
  "></polyline>
<polyline clip-path="url(#clip500)" style="stroke:#000000; stroke-linecap:round; stroke-linejoin:round; stroke-width:4; stroke-opacity:1; fill:none" points="
  771.706,1486.45 771.706,1467.55 
  "></polyline>
<polyline clip-path="url(#clip500)" style="stroke:#000000; stroke-linecap:round; stroke-linejoin:round; stroke-width:4; stroke-opacity:1; fill:none" points="
  1344.72,1486.45 1344.72,1467.55 
  "></polyline>
<polyline clip-path="url(#clip500)" style="stroke:#000000; stroke-linecap:round; stroke-linejoin:round; stroke-width:4; stroke-opacity:1; fill:none" points="
  1917.73,1486.45 1917.73,1467.55 
  "></polyline>
<path clip-path="url(#clip500)" d="M198.696 1517.37 Q195.084 1517.37 193.256 1520.93 Q191.45 1524.47 191.45 1531.6 Q191.45 1538.71 193.256 1542.27 Q195.084 1545.82 198.696 1545.82 Q202.33 1545.82 204.135 1542.27 Q205.964 1538.71 205.964 1531.6 Q205.964 1524.47 204.135 1520.93 Q202.33 1517.37 198.696 1517.37 M198.696 1513.66 Q204.506 1513.66 207.561 1518.27 Q210.64 1522.85 210.64 1531.6 Q210.64 1540.33 207.561 1544.94 Q204.506 1549.52 198.696 1549.52 Q192.885 1549.52 189.807 1544.94 Q186.751 1540.33 186.751 1531.6 Q186.751 1522.85 189.807 1518.27 Q192.885 1513.66 198.696 1513.66 Z" fill="#000000" fill-rule="evenodd" fill-opacity="1"></path><path clip-path="url(#clip500)" d="M731.313 1544.91 L738.951 1544.91 L738.951 1518.55 L730.641 1520.21 L730.641 1515.95 L738.905 1514.29 L743.581 1514.29 L743.581 1544.91 L751.22 1544.91 L751.22 1548.85 L731.313 1548.85 L731.313 1544.91 Z" fill="#000000" fill-rule="evenodd" fill-opacity="1"></path><path clip-path="url(#clip500)" d="M770.664 1517.37 Q767.053 1517.37 765.224 1520.93 Q763.419 1524.47 763.419 1531.6 Q763.419 1538.71 765.224 1542.27 Q767.053 1545.82 770.664 1545.82 Q774.298 1545.82 776.104 1542.27 Q777.933 1538.71 777.933 1531.6 Q777.933 1524.47 776.104 1520.93 Q774.298 1517.37 770.664 1517.37 M770.664 1513.66 Q776.474 1513.66 779.53 1518.27 Q782.609 1522.85 782.609 1531.6 Q782.609 1540.33 779.53 1544.94 Q776.474 1549.52 770.664 1549.52 Q764.854 1549.52 761.775 1544.94 Q758.72 1540.33 758.72 1531.6 Q758.72 1522.85 761.775 1518.27 Q764.854 1513.66 770.664 1513.66 Z" fill="#000000" fill-rule="evenodd" fill-opacity="1"></path><path clip-path="url(#clip500)" d="M800.826 1517.37 Q797.215 1517.37 795.386 1520.93 Q793.581 1524.47 793.581 1531.6 Q793.581 1538.71 795.386 1542.27 Q797.215 1545.82 800.826 1545.82 Q804.46 1545.82 806.266 1542.27 Q808.095 1538.71 808.095 1531.6 Q808.095 1524.47 806.266 1520.93 Q804.46 1517.37 800.826 1517.37 M800.826 1513.66 Q806.636 1513.66 809.692 1518.27 Q812.77 1522.85 812.77 1531.6 Q812.77 1540.33 809.692 1544.94 Q806.636 1549.52 800.826 1549.52 Q795.016 1549.52 791.937 1544.94 Q788.882 1540.33 788.882 1531.6 Q788.882 1522.85 791.937 1518.27 Q795.016 1513.66 800.826 1513.66 Z" fill="#000000" fill-rule="evenodd" fill-opacity="1"></path><path clip-path="url(#clip500)" d="M1308.41 1544.91 L1324.73 1544.91 L1324.73 1548.85 L1302.78 1548.85 L1302.78 1544.91 Q1305.45 1542.16 1310.03 1537.53 Q1314.64 1532.88 1315.82 1531.53 Q1318.06 1529.01 1318.94 1527.27 Q1319.84 1525.51 1319.84 1523.82 Q1319.84 1521.07 1317.9 1519.33 Q1315.98 1517.6 1312.88 1517.6 Q1310.68 1517.6 1308.22 1518.36 Q1305.79 1519.13 1303.02 1520.68 L1303.02 1515.95 Q1305.84 1514.82 1308.29 1514.24 Q1310.75 1513.66 1312.78 1513.66 Q1318.15 1513.66 1321.35 1516.35 Q1324.54 1519.03 1324.54 1523.52 Q1324.54 1525.65 1323.73 1527.57 Q1322.95 1529.47 1320.84 1532.07 Q1320.26 1532.74 1317.16 1535.95 Q1314.06 1539.15 1308.41 1544.91 Z" fill="#000000" fill-rule="evenodd" fill-opacity="1"></path><path clip-path="url(#clip500)" d="M1344.54 1517.37 Q1340.93 1517.37 1339.1 1520.93 Q1337.3 1524.47 1337.3 1531.6 Q1337.3 1538.71 1339.1 1542.27 Q1340.93 1545.82 1344.54 1545.82 Q1348.18 1545.82 1349.98 1542.27 Q1351.81 1538.71 1351.81 1531.6 Q1351.81 1524.47 1349.98 1520.93 Q1348.18 1517.37 1344.54 1517.37 M1344.54 1513.66 Q1350.35 1513.66 1353.41 1518.27 Q1356.49 1522.85 1356.49 1531.6 Q1356.49 1540.33 1353.41 1544.94 Q1350.35 1549.52 1344.54 1549.52 Q1338.73 1549.52 1335.65 1544.94 Q1332.6 1540.33 1332.6 1531.6 Q1332.6 1522.85 1335.65 1518.27 Q1338.73 1513.66 1344.54 1513.66 Z" fill="#000000" fill-rule="evenodd" fill-opacity="1"></path><path clip-path="url(#clip500)" d="M1374.7 1517.37 Q1371.09 1517.37 1369.26 1520.93 Q1367.46 1524.47 1367.46 1531.6 Q1367.46 1538.71 1369.26 1542.27 Q1371.09 1545.82 1374.7 1545.82 Q1378.34 1545.82 1380.14 1542.27 Q1381.97 1538.71 1381.97 1531.6 Q1381.97 1524.47 1380.14 1520.93 Q1378.34 1517.37 1374.7 1517.37 M1374.7 1513.66 Q1380.51 1513.66 1383.57 1518.27 Q1386.65 1522.85 1386.65 1531.6 Q1386.65 1540.33 1383.57 1544.94 Q1380.51 1549.52 1374.7 1549.52 Q1368.89 1549.52 1365.82 1544.94 Q1362.76 1540.33 1362.76 1531.6 Q1362.76 1522.85 1365.82 1518.27 Q1368.89 1513.66 1374.7 1513.66 Z" fill="#000000" fill-rule="evenodd" fill-opacity="1"></path><path clip-path="url(#clip500)" d="M1891.49 1530.21 Q1894.84 1530.93 1896.72 1533.2 Q1898.62 1535.47 1898.62 1538.8 Q1898.62 1543.92 1895.1 1546.72 Q1891.58 1549.52 1885.1 1549.52 Q1882.92 1549.52 1880.61 1549.08 Q1878.32 1548.66 1875.86 1547.81 L1875.86 1543.29 Q1877.81 1544.43 1880.12 1545.01 Q1882.44 1545.58 1884.96 1545.58 Q1889.36 1545.58 1891.65 1543.85 Q1893.97 1542.11 1893.97 1538.8 Q1893.97 1535.75 1891.81 1534.03 Q1889.68 1532.3 1885.86 1532.3 L1881.84 1532.3 L1881.84 1528.45 L1886.05 1528.45 Q1889.5 1528.45 1891.33 1527.09 Q1893.15 1525.7 1893.15 1523.11 Q1893.15 1520.45 1891.26 1519.03 Q1889.38 1517.6 1885.86 1517.6 Q1883.94 1517.6 1881.74 1518.01 Q1879.54 1518.43 1876.9 1519.31 L1876.9 1515.14 Q1879.57 1514.4 1881.88 1514.03 Q1884.22 1513.66 1886.28 1513.66 Q1891.6 1513.66 1894.71 1516.09 Q1897.81 1518.5 1897.81 1522.62 Q1897.81 1525.49 1896.16 1527.48 Q1894.52 1529.45 1891.49 1530.21 Z" fill="#000000" fill-rule="evenodd" fill-opacity="1"></path><path clip-path="url(#clip500)" d="M1917.48 1517.37 Q1913.87 1517.37 1912.04 1520.93 Q1910.24 1524.47 1910.24 1531.6 Q1910.24 1538.71 1912.04 1542.27 Q1913.87 1545.82 1917.48 1545.82 Q1921.12 1545.82 1922.92 1542.27 Q1924.75 1538.71 1924.75 1531.6 Q1924.75 1524.47 1922.92 1520.93 Q1921.12 1517.37 1917.48 1517.37 M1917.48 1513.66 Q1923.29 1513.66 1926.35 1518.27 Q1929.43 1522.85 1929.43 1531.6 Q1929.43 1540.33 1926.35 1544.94 Q1923.29 1549.52 1917.48 1549.52 Q1911.67 1549.52 1908.59 1544.94 Q1905.54 1540.33 1905.54 1531.6 Q1905.54 1522.85 1908.59 1518.27 Q1911.67 1513.66 1917.48 1513.66 Z" fill="#000000" fill-rule="evenodd" fill-opacity="1"></path><path clip-path="url(#clip500)" d="M1947.65 1517.37 Q1944.03 1517.37 1942.21 1520.93 Q1940.4 1524.47 1940.4 1531.6 Q1940.4 1538.71 1942.21 1542.27 Q1944.03 1545.82 1947.65 1545.82 Q1951.28 1545.82 1953.09 1542.27 Q1954.91 1538.71 1954.91 1531.6 Q1954.91 1524.47 1953.09 1520.93 Q1951.28 1517.37 1947.65 1517.37 M1947.65 1513.66 Q1953.46 1513.66 1956.51 1518.27 Q1959.59 1522.85 1959.59 1531.6 Q1959.59 1540.33 1956.51 1544.94 Q1953.46 1549.52 1947.65 1549.52 Q1941.84 1549.52 1938.76 1544.94 Q1935.7 1540.33 1935.7 1531.6 Q1935.7 1522.85 1938.76 1518.27 Q1941.84 1513.66 1947.65 1513.66 Z" fill="#000000" fill-rule="evenodd" fill-opacity="1"></path><polyline clip-path="url(#clip502)" style="stroke:#000000; stroke-linecap:round; stroke-linejoin:round; stroke-width:2; stroke-opacity:0.1; fill:none" points="
  141.853,1485.13 2352.76,1485.13 
  "></polyline>
<polyline clip-path="url(#clip502)" style="stroke:#000000; stroke-linecap:round; stroke-linejoin:round; stroke-width:2; stroke-opacity:0.1; fill:none" points="
  141.853,1146.83 2352.76,1146.83 
  "></polyline>
<polyline clip-path="url(#clip502)" style="stroke:#000000; stroke-linecap:round; stroke-linejoin:round; stroke-width:2; stroke-opacity:0.1; fill:none" points="
  141.853,808.541 2352.76,808.541 
  "></polyline>
<polyline clip-path="url(#clip502)" style="stroke:#000000; stroke-linecap:round; stroke-linejoin:round; stroke-width:2; stroke-opacity:0.1; fill:none" points="
  141.853,470.247 2352.76,470.247 
  "></polyline>
<polyline clip-path="url(#clip502)" style="stroke:#000000; stroke-linecap:round; stroke-linejoin:round; stroke-width:2; stroke-opacity:0.1; fill:none" points="
  141.853,131.954 2352.76,131.954 
  "></polyline>
<polyline clip-path="url(#clip500)" style="stroke:#000000; stroke-linecap:round; stroke-linejoin:round; stroke-width:4; stroke-opacity:1; fill:none" points="
  141.853,1486.45 141.853,47.2441 
  "></polyline>
<polyline clip-path="url(#clip500)" style="stroke:#000000; stroke-linecap:round; stroke-linejoin:round; stroke-width:4; stroke-opacity:1; fill:none" points="
  141.853,1485.13 160.751,1485.13 
  "></polyline>
<polyline clip-path="url(#clip500)" style="stroke:#000000; stroke-linecap:round; stroke-linejoin:round; stroke-width:4; stroke-opacity:1; fill:none" points="
  141.853,1146.83 160.751,1146.83 
  "></polyline>
<polyline clip-path="url(#clip500)" style="stroke:#000000; stroke-linecap:round; stroke-linejoin:round; stroke-width:4; stroke-opacity:1; fill:none" points="
  141.853,808.541 160.751,808.541 
  "></polyline>
<polyline clip-path="url(#clip500)" style="stroke:#000000; stroke-linecap:round; stroke-linejoin:round; stroke-width:4; stroke-opacity:1; fill:none" points="
  141.853,470.247 160.751,470.247 
  "></polyline>
<polyline clip-path="url(#clip500)" style="stroke:#000000; stroke-linecap:round; stroke-linejoin:round; stroke-width:4; stroke-opacity:1; fill:none" points="
  141.853,131.954 160.751,131.954 
  "></polyline>
<path clip-path="url(#clip500)" d="M93.9086 1470.93 Q90.2975 1470.93 88.4688 1474.49 Q86.6632 1478.03 86.6632 1485.16 Q86.6632 1492.27 88.4688 1495.83 Q90.2975 1499.37 93.9086 1499.37 Q97.5428 1499.37 99.3483 1495.83 Q101.177 1492.27 101.177 1485.16 Q101.177 1478.03 99.3483 1474.49 Q97.5428 1470.93 93.9086 1470.93 M93.9086 1467.22 Q99.7187 1467.22 102.774 1471.83 Q105.853 1476.41 105.853 1485.16 Q105.853 1493.89 102.774 1498.49 Q99.7187 1503.08 93.9086 1503.08 Q88.0984 1503.08 85.0197 1498.49 Q81.9642 1493.89 81.9642 1485.16 Q81.9642 1476.41 85.0197 1471.83 Q88.0984 1467.22 93.9086 1467.22 Z" fill="#000000" fill-rule="evenodd" fill-opacity="1"></path><path clip-path="url(#clip500)" d="M57.7745 1160.18 L74.0939 1160.18 L74.0939 1164.11 L52.1495 1164.11 L52.1495 1160.18 Q54.8115 1157.42 59.3949 1152.79 Q64.0013 1148.14 65.1819 1146.8 Q67.4272 1144.28 68.3068 1142.54 Q69.2096 1140.78 69.2096 1139.09 Q69.2096 1136.34 67.2652 1134.6 Q65.3439 1132.86 62.2421 1132.86 Q60.043 1132.86 57.5893 1133.63 Q55.1588 1134.39 52.381 1135.94 L52.381 1131.22 Q55.2051 1130.09 57.6588 1129.51 Q60.1124 1128.93 62.1495 1128.93 Q67.5198 1128.93 70.7142 1131.61 Q73.9087 1134.3 73.9087 1138.79 Q73.9087 1140.92 73.0985 1142.84 Q72.3115 1144.74 70.205 1147.33 Q69.6263 1148 66.5245 1151.22 Q63.4226 1154.41 57.7745 1160.18 Z" fill="#000000" fill-rule="evenodd" fill-opacity="1"></path><path clip-path="url(#clip500)" d="M93.9086 1132.63 Q90.2975 1132.63 88.4688 1136.2 Q86.6632 1139.74 86.6632 1146.87 Q86.6632 1153.97 88.4688 1157.54 Q90.2975 1161.08 93.9086 1161.08 Q97.5428 1161.08 99.3483 1157.54 Q101.177 1153.97 101.177 1146.87 Q101.177 1139.74 99.3483 1136.2 Q97.5428 1132.63 93.9086 1132.63 M93.9086 1128.93 Q99.7187 1128.93 102.774 1133.54 Q105.853 1138.12 105.853 1146.87 Q105.853 1155.6 102.774 1160.2 Q99.7187 1164.79 93.9086 1164.79 Q88.0984 1164.79 85.0197 1160.2 Q81.9642 1155.6 81.9642 1146.87 Q81.9642 1138.12 85.0197 1133.54 Q88.0984 1128.93 93.9086 1128.93 Z" fill="#000000" fill-rule="evenodd" fill-opacity="1"></path><path clip-path="url(#clip500)" d="M66.5939 795.335 L54.7884 813.784 L66.5939 813.784 L66.5939 795.335 M65.367 791.261 L71.2466 791.261 L71.2466 813.784 L76.1772 813.784 L76.1772 817.673 L71.2466 817.673 L71.2466 825.821 L66.5939 825.821 L66.5939 817.673 L50.9921 817.673 L50.9921 813.159 L65.367 791.261 Z" fill="#000000" fill-rule="evenodd" fill-opacity="1"></path><path clip-path="url(#clip500)" d="M93.9086 794.339 Q90.2975 794.339 88.4688 797.904 Q86.6632 801.446 86.6632 808.575 Q86.6632 815.682 88.4688 819.247 Q90.2975 822.788 93.9086 822.788 Q97.5428 822.788 99.3483 819.247 Q101.177 815.682 101.177 808.575 Q101.177 801.446 99.3483 797.904 Q97.5428 794.339 93.9086 794.339 M93.9086 790.636 Q99.7187 790.636 102.774 795.242 Q105.853 799.825 105.853 808.575 Q105.853 817.302 102.774 821.909 Q99.7187 826.492 93.9086 826.492 Q88.0984 826.492 85.0197 821.909 Q81.9642 817.302 81.9642 808.575 Q81.9642 799.825 85.0197 795.242 Q88.0984 790.636 93.9086 790.636 Z" fill="#000000" fill-rule="evenodd" fill-opacity="1"></path><path clip-path="url(#clip500)" d="M64.3254 468.384 Q61.1773 468.384 59.3254 470.537 Q57.4967 472.69 57.4967 476.44 Q57.4967 480.166 59.3254 482.342 Q61.1773 484.495 64.3254 484.495 Q67.4735 484.495 69.3022 482.342 Q71.1541 480.166 71.1541 476.44 Q71.1541 472.69 69.3022 470.537 Q67.4735 468.384 64.3254 468.384 M73.6077 453.731 L73.6077 457.991 Q71.8485 457.157 70.0429 456.717 Q68.2606 456.278 66.5013 456.278 Q61.8717 456.278 59.418 459.403 Q56.9875 462.528 56.6402 468.847 Q58.006 466.833 60.0662 465.768 Q62.1263 464.68 64.6032 464.68 Q69.8115 464.68 72.8207 467.852 Q75.8531 471 75.8531 476.44 Q75.8531 481.764 72.705 484.981 Q69.5568 488.199 64.3254 488.199 Q58.33 488.199 55.1588 483.615 Q51.9875 479.009 51.9875 470.282 Q51.9875 462.088 55.8764 457.227 Q59.7652 452.342 66.3161 452.342 Q68.0754 452.342 69.8578 452.69 Q71.6633 453.037 73.6077 453.731 Z" fill="#000000" fill-rule="evenodd" fill-opacity="1"></path><path clip-path="url(#clip500)" d="M93.9086 456.046 Q90.2975 456.046 88.4688 459.611 Q86.6632 463.153 86.6632 470.282 Q86.6632 477.389 88.4688 480.953 Q90.2975 484.495 93.9086 484.495 Q97.5428 484.495 99.3483 480.953 Q101.177 477.389 101.177 470.282 Q101.177 463.153 99.3483 459.611 Q97.5428 456.046 93.9086 456.046 M93.9086 452.342 Q99.7187 452.342 102.774 456.949 Q105.853 461.532 105.853 470.282 Q105.853 479.009 102.774 483.615 Q99.7187 488.199 93.9086 488.199 Q88.0984 488.199 85.0197 483.615 Q81.9642 479.009 81.9642 470.282 Q81.9642 461.532 85.0197 456.949 Q88.0984 452.342 93.9086 452.342 Z" fill="#000000" fill-rule="evenodd" fill-opacity="1"></path><path clip-path="url(#clip500)" d="M63.7467 132.822 Q60.4134 132.822 58.4921 134.605 Q56.5939 136.387 56.5939 139.512 Q56.5939 142.637 58.4921 144.42 Q60.4134 146.202 63.7467 146.202 Q67.08 146.202 69.0013 144.42 Q70.9226 142.614 70.9226 139.512 Q70.9226 136.387 69.0013 134.605 Q67.1032 132.822 63.7467 132.822 M59.0708 130.832 Q56.0615 130.091 54.3717 128.031 Q52.7051 125.971 52.7051 123.008 Q52.7051 118.864 55.6449 116.457 Q58.6078 114.049 63.7467 114.049 Q68.9087 114.049 71.8485 116.457 Q74.7883 118.864 74.7883 123.008 Q74.7883 125.971 73.0985 128.031 Q71.4318 130.091 68.4457 130.832 Q71.8253 131.619 73.7003 133.91 Q75.5985 136.202 75.5985 139.512 Q75.5985 144.535 72.5198 147.221 Q69.4642 149.906 63.7467 149.906 Q58.0291 149.906 54.9504 147.221 Q51.8949 144.535 51.8949 139.512 Q51.8949 136.202 53.793 133.91 Q55.6912 131.619 59.0708 130.832 M57.3578 123.447 Q57.3578 126.133 59.0245 127.637 Q60.7143 129.142 63.7467 129.142 Q66.7559 129.142 68.4457 127.637 Q70.1587 126.133 70.1587 123.447 Q70.1587 120.762 68.4457 119.258 Q66.7559 117.753 63.7467 117.753 Q60.7143 117.753 59.0245 119.258 Q57.3578 120.762 57.3578 123.447 Z" fill="#000000" fill-rule="evenodd" fill-opacity="1"></path><path clip-path="url(#clip500)" d="M93.9086 117.753 Q90.2975 117.753 88.4688 121.318 Q86.6632 124.86 86.6632 131.989 Q86.6632 139.096 88.4688 142.66 Q90.2975 146.202 93.9086 146.202 Q97.5428 146.202 99.3483 142.66 Q101.177 139.096 101.177 131.989 Q101.177 124.86 99.3483 121.318 Q97.5428 117.753 93.9086 117.753 M93.9086 114.049 Q99.7187 114.049 102.774 118.656 Q105.853 123.239 105.853 131.989 Q105.853 140.716 102.774 145.322 Q99.7187 149.906 93.9086 149.906 Q88.0984 149.906 85.0197 145.322 Q81.9642 140.716 81.9642 131.989 Q81.9642 123.239 85.0197 118.656 Q88.0984 114.049 93.9086 114.049 Z" fill="#000000" fill-rule="evenodd" fill-opacity="1"></path><polyline clip-path="url(#clip502)" style="stroke:#009af9; stroke-linecap:round; stroke-linejoin:round; stroke-width:4; stroke-opacity:1; fill:none" points="
  359.138,132.124 359.138,438.279 1745.82,803.974 2290.18,790.78 2261.53,735.808 714.405,689.631 2290.18,745.956 359.138,868.588 359.138,709.59 359.138,820.55 
  714.405,841.186 359.138,1011.18 1745.82,757.627 714.405,769.129 359.138,676.437 714.405,590.172 714.405,819.366 2290.18,535.538 714.405,799.068 1230.11,764.224 
  1230.11,777.418 359.138,1007.46 215.886,1348.79 1230.11,737.33 2290.18,596.769 1745.82,583.576 1745.82,789.089 1230.11,603.535 359.138,852.011 238.806,832.221 
  2290.18,550.423 2290.18,590.172 1230.11,779.447 1745.82,772.512 2290.18,576.979 1745.82,835.435 359.138,976.334 714.405,847.106 714.405,770.821 1230.11,871.971 
  714.405,631.613 2290.18,745.956 2290.18,825.455 1230.11,586.959 714.405,782.492 238.806,891.761 215.886,1230.56 1230.11,795.685 238.806,1040.95 238.806,929.988 
  1230.11,812.262 1230.11,691.322 714.405,924.913 714.405,653.095 238.806,1238.34 238.806,1237.5 2290.18,775.895 215.886,1330.7 1230.11,623.325 359.138,926.605 
  1745.82,565.308 1745.82,610.132 215.886,1318.18 1745.82,628.23 1230.11,661.383 1745.82,553.806 2261.53,729.042 238.806,972.951 359.138,793.994 359.138,267.441 
  215.886,903.263 215.886,997.985 215.886,920.177 215.886,871.125 215.886,994.602 215.886,845.753 215.886,805.158 215.886,920.177 215.886,1009.83 215.886,786.552 
  215.886,920.177 215.886,1058.88 215.886,789.934 215.886,888.039 215.886,1006.44 215.886,1001.37 215.886,888.039 215.886,1072.41 215.886,888.039 215.886,820.381 
  215.886,798.392 215.886,888.039 215.886,1077.48 238.806,703.67 238.806,761.18 238.806,652.926 238.806,693.521 238.806,712.127 238.806,544.672 238.806,556.512 
  238.806,652.926 238.806,894.805 238.806,691.829 238.806,652.926 238.806,920.177 238.806,570.044 238.806,539.598 238.806,642.777 238.806,688.447 238.806,539.598 
  238.806,842.37 238.806,539.598 238.806,536.215 238.806,485.64 238.806,1097.78 238.806,891.422 359.138,451.811 359.138,473.63 359.138,465.342 359.138,439.801 
  359.138,526.066 359.138,329.856 359.138,353.536 359.138,465.342 359.138,627.554 359.138,531.14 359.138,465.342 359.138,546.363 359.138,326.473 359.138,279.112 
  359.138,221.602 359.138,602.182 359.138,279.112 359.138,340.005 359.138,279.112 359.138,368.76 359.138,224.985 359.138,279.112 359.138,641.086 519.581,412.738 
  519.581,387.366 519.581,397.514 519.581,387.366 519.581,466.865 519.581,262.197 519.581,312.941 519.581,397.514 519.581,551.438 519.581,490.545 519.581,397.514 
  519.581,367.068 519.581,238.517 519.581,177.624 519.581,128.571 519.581,556.512 519.581,177.624 519.581,250.526 519.581,177.624 519.581,272.346 519.581,142.103 
  519.581,177.624 519.581,472.108 720.135,387.366 720.135,358.611 720.135,382.291 720.135,356.919 720.135,427.961 720.135,230.229 720.135,289.261 720.135,382.291 
  720.135,510.843 720.135,483.779 720.135,382.291 720.135,333.239 720.135,208.07 720.135,143.795 720.135,529.449 720.135,143.795 720.135,186.081 720.135,143.795 
  720.135,245.283 720.135,87.9763 720.135,143.795 720.135,338.313 215.886,1289.26 278.917,1071.56 359.138,1064.12 519.581,986.99 771.706,796.531 215.886,1309.55 
  278.917,1110.64 359.138,1098.8 519.581,1017.27 771.706,900.556 215.886,1274.54 278.917,1062.43 359.138,1050.08 519.581,910.705 771.706,853.534 215.886,1230.73 
  278.917,1128.9 359.138,1038.58 519.581,887.363 771.706,798.899 215.886,1274.2 278.917,1131.27 359.138,1063.95 519.581,906.646 771.706,815.137 215.886,1315.47 
  278.917,1145.48 359.138,1071.06 519.581,951.639 771.706,887.363 215.886,1325.28 278.917,1100.83 359.138,1003.57 519.581,832.898 771.706,801.944 215.886,1303.13 
  278.917,1054.14 359.138,1120.79 519.581,1000.86 771.706,917.809 215.886,1354.04 278.917,1183.71 359.138,1075.12 519.581,929.48 771.706,821.565 215.886,1180.66 
  278.917,971.09 359.138,711.958 519.581,626.37 771.706,573.427 215.886,1262.19 278.917,1183.37 359.138,804.65 519.581,687.939 771.706,639.901 215.886,1259.15 
  278.917,1107.59 359.138,1070.04 519.581,954.852 771.706,793.994 215.886,1148.02 278.917,1050.59 359.138,973.797 519.581,815.476 771.706,735.808 215.886,1251.37 
  278.917,1063.61 359.138,990.881 519.581,836.788 771.706,768.791 215.886,1256.1 278.917,1040.1 359.138,949.947 519.581,765.408 771.706,759.15 215.886,1259.65 
  278.917,1056 359.138,852.519 519.581,734.116 771.706,677.621 215.886,1154.95 278.917,954.852 359.138,833.913 519.581,722.614 771.706,676.268 215.886,1223.96 
  278.917,1032.32 359.138,914.596 519.581,762.871 771.706,709.759 215.886,1193.86 278.917,978.871 359.138,983.607 519.581,859.792 771.706,747.986 215.886,1263.21 
  278.917,1071.9 359.138,932.694 519.581,865.374 771.706,737.33 215.886,1254.75 278.917,1119.77 359.138,1015.41 519.581,883.473 771.706,717.709 215.886,1361.31 
  278.917,1121.46 359.138,956.206 519.581,749.339 771.706,661.891 215.886,1359.96 278.917,1087.46 359.138,958.743 519.581,822.918 771.706,670.686 215.886,1104.55 
  278.917,898.696 359.138,897.512 519.581,722.614 771.706,656.816 215.886,1093.72 278.917,776.572 359.138,668.487 519.581,621.803 771.706,543.995 215.886,1096.94 
  278.917,889.224 359.138,809.555 519.581,661.045 771.706,604.888 215.886,1129.58 278.917,920.854 359.138,911.043 519.581,738.514 771.706,717.709 215.886,1225.32 
  278.917,1000.01 359.138,963.31 519.581,774.204 771.706,621.465 215.886,1116.73 278.917,769.806 359.138,629.245 519.581,540.782 771.706,454.179 215.886,1087.29 
  278.917,770.99 359.138,597.107 519.581,464.835 771.706,361.655 215.886,1082.56 278.917,829.346 359.138,616.898 519.581,523.529 771.706,493.759 215.886,1114.53 
  278.917,859.454 359.138,683.372 519.581,606.241 771.706,525.389 215.886,1187.94 278.917,914.596 359.138,806.003 519.581,696.227 771.706,638.041 215.886,1191.32 
  278.917,915.103 359.138,708.068 519.581,615.206 771.706,482.088 215.886,970.076 278.917,678.129 359.138,417.135 519.581,354.89 771.706,352.691 215.886,1021.33 
  278.917,876.876 359.138,546.194 519.581,436.587 771.706,410.539 215.886,1180.32 278.917,832.221 359.138,602.182 519.581,572.412 771.706,527.25 215.886,1225.66 
  278.917,1044.5 359.138,973.966 519.581,854.718 771.706,703.162 215.886,1209.76 278.917,1051.77 359.138,944.365 519.581,871.125 771.706,756.782 359.138,342.204 
  359.138,517.101 359.138,102.354 359.138,402.251 359.138,152.252 359.138,785.368 359.138,465.511 359.138,523.867 359.138,622.141 359.138,545.518 359.138,738.683 
  359.138,819.028 359.138,543.826 359.138,685.402 359.138,735.3 359.138,600.49 359.138,652.08 359.138,785.368 359.138,991.895 359.138,818.689 359.138,820.381 
  359.138,337.129 359.138,495.281 359.138,578.84 359.138,487.162 359.138,195.553 359.138,303.807 215.886,1241.56 215.886,1156.64 215.886,1134.49 215.886,1232.42 
  215.886,1125.01 215.886,1094.74 215.886,1222.61 215.886,1217.54 215.886,1272.85 215.886,1341.52 215.886,1221.09 215.886,1279.11 215.886,1282.49 278.917,1199.61 
  278.917,925.421 278.917,905.969 278.917,947.072 278.917,981.916 278.917,926.774 278.917,928.635 278.917,985.299 278.917,1156.64 278.917,1068.01 278.917,984.622 
  278.917,1074.44 278.917,1134.49 359.138,1041.96 359.138,700.456 359.138,822.749 359.138,788.243 359.138,915.272 359.138,838.987 359.138,784.691 359.138,845.584 
  359.138,1064.8 359.138,1024.71 359.138,730.057 359.138,854.718 359.138,922.376 519.581,866.727 519.581,576.472 519.581,663.244 519.581,610.301 519.581,878.736 
  519.581,575.626 519.581,580.869 519.581,656.478 519.581,948.594 519.581,814.63 519.581,618.082 519.581,751.2 519.581,820.888 771.706,843.047 771.706,554.482 
  771.706,639.563 771.706,577.486 771.706,847.783 771.706,536.891 771.706,524.205 771.706,623.494 771.706,917.471 771.706,788.92 771.706,589.327 771.706,736.146 
  771.706,806.003 359.138,520.484 359.138,733.778 359.138,622.141 359.138,582.053 215.886,887.025 215.886,1061.92 215.886,1090.17 238.806,605.396 238.806,842.032 
  238.806,820.381 519.581,452.149 519.581,535.538 519.581,550.592 519.581,558.711 359.138,635.335 359.138,695.551 215.886,1100.32 215.886,1053.63 
  215.886,897.004 238.806,861.991 238.806,708.744 238.806,780.293 519.581,532.155 519.581,673.731 519.581,445.552 359.138,740.375 359.138,547.209 359.138,545.518 
  359.138,505.43 215.886,1051.94 238.806,918.655 519.581,477.183 215.886,985.299 238.806,843.723 519.581,438.786 359.138,435.572 215.886,943.689 359.138,265.58 
  238.806,825.455 519.581,373.834 215.886,941.997 238.806,803.635 519.581,227.353 359.138,1113.51 215.886,1318.52 238.806,1230.22 519.581,1091.86 359.138,745.449 
  215.886,1258.47 238.806,1076.98 519.581,732.086 359.138,420.518 359.138,478.874 215.886,1060.23 215.886,1085.26 238.806,880.428 238.806,832.052 519.581,322.244 
  519.581,355.566 359.138,1081.71 714.405,942.674 215.886,1288.07 215.886,1160.37 714.405,658.846 359.138,815.306 359.138,741.897 238.806,900.387 714.405,566.323 
  215.886,1072.41 215.886,1220.92 714.405,1115.37 238.806,1312.26 238.806,1238.17 359.138,1167.98 359.138,944.365 238.806,1089.32 359.138,1052.62 714.405,780.124 
  238.806,1015.91 215.886,1346.43 238.806,1322.41 238.806,1055.16 238.806,1219.74 359.138,1012.53 359.138,933.202 238.806,1193.52 238.806,1150.72 359.138,818.013 
  359.138,1049.57 359.138,925.59 238.806,1077.99 238.806,1116.05 359.138,1128.74 238.806,1234.11 359.138,943.012 238.806,1282.83 238.806,1054.65 359.138,1104.72 
  359.138,1058.54 359.138,813.615 238.806,1263.71 359.138,830.53 238.806,1358.1 359.138,1187.77 238.806,1126.87 359.138,1177.28 238.806,1194.19 359.138,1102.35 
  238.806,1115.37 238.806,1275.89 359.138,1049.91 359.138,845.584 238.806,1114.36 359.138,926.267 238.806,1239.19 359.138,1029.95 238.806,1349.81 359.138,945.549 
  238.806,1310.23 359.138,1150.72 359.138,851.842 238.806,1290.95 238.806,1071.73 359.138,1187.43 238.806,1303.63 359.138,954.345 215.886,1261.52 238.806,1130.43 
  278.917,1027.75 359.138,943.181 714.405,890.238 1230.11,868.588 2290.18,827.316 215.886,1375.69 278.917,1267.94 359.138,1173.56 714.405,1113.85 1230.11,1077.48 
  2290.18,1060.91 278.917,1125.52 359.138,1045.85 215.886,1292.98 714.405,956.544 1230.11,938.276 2261.53,915.103 215.886,1327.65 714.405,1029.45 1230.11,1017.77 
  2290.18,981.239 1230.11,901.74 2290.18,873.662 215.886,1273.02 359.138,1019.47 714.405,928.296 238.806,1316.15 238.806,1352.52 359.138,1277.92 238.806,1296.19 
  359.138,1191.83 238.806,1188.44 359.138,968.046 238.806,1244.94 359.138,1070.72 238.806,1221.6 359.138,1030.97 238.806,1044.33 359.138,838.818 359.138,745.956 
  238.806,975.319 238.806,1269.8 359.138,1132.12 238.806,1142.1 359.138,905.123 238.806,1154.61 714.405,678.129 714.405,751.369 359.138,979.548 215.886,1368.42 
  714.405,923.729 215.886,1402.25 215.886,1407.83 714.405,1054.48 359.138,1074.27 359.138,910.874 215.886,1292.13 359.138,1136.85 238.806,1047.21 714.405,990.711 
  714.405,960.434 238.806,1309.38 359.138,915.78 359.138,1013.72 238.806,1157.83 238.806,1292.47 215.886,1268.79 359.138,820.043 215.886,1404.27 215.886,1212.63 
  359.138,751.369 238.806,1139.73 215.886,1367.74 238.806,1230.9 215.886,1255.59 714.405,934.893 238.806,1218.72 238.806,1355.22 359.138,828.838 359.138,926.943 
  359.138,1192.84 359.138,1074.44 359.138,1078.33 714.405,866.22 714.405,627.046 238.806,1254.07 215.886,1245.95 714.405,676.945 215.886,1445.72 238.806,1199.44 
  238.806,1087.29 215.886,1369.94 714.405,813.615 359.138,1181.34 359.138,928.973 359.138,1107.08 238.806,1302.62 238.806,1354.55 359.138,780.124 215.886,1323.42 
  215.886,1368.75 714.405,630.429 238.806,1194.7 359.138,970.245 215.886,1320.55 215.886,1428.97 714.405,1039.93 714.405,753.568 215.886,1378.9 714.405,942.166 
  359.138,859.961 714.405,561.587 238.806,1121.8 215.886,1321.22 238.806,1343.55 714.405,814.292 238.806,1314.46 215.886,1403.43 238.806,1310.06 714.405,748.155 
  714.405,607.933 215.886,1284.69 238.806,1193.52 359.138,1014.39 714.405,880.259 886.308,830.53 215.886,1243.08 238.806,1190.14 359.138,948.256 714.405,843.892 
  886.308,819.028 215.886,1216.69 238.806,1332.73 359.138,916.625 714.405,797.377 886.308,793.994 238.806,1281.31 359.138,1188.44 238.806,1165.27 359.138,1059.22 
  238.806,961.449 359.138,742.743 714.405,566.999 359.138,860.299 238.806,1239.86 359.138,1105.56 204.426,1271.33 215.886,1044.33 238.806,923.391 278.917,860.299 
  359.138,739.36 238.806,595.247 278.917,474.307 359.138,346.601 714.405,306.852 1230.11,273.699 1745.82,230.567 238.806,1178.46 278.917,1104.04 359.138,1022.68 
  519.581,978.025 714.405,954.852 1230.11,931.679 204.426,1379.07 215.886,1236.48 238.806,1092.37 278.917,1012.87 359.138,954.852 1230.11,825.455 2261.53,787.566 
  215.886,1231.58 215.886,1256.44 238.806,1079.18 359.138,852.18 238.806,1291.12 359.138,1105.56 238.806,1127.21 359.138,946.564 238.806,1234.79 359.138,1059.22 
  359.138,1188.44 238.806,1244.94 359.138,1118.92 714.405,988.005 215.886,1256.44 238.806,1210.09 359.138,953.161 714.405,855.394 238.806,1178.46 359.138,931.679 
  714.405,817.167 1230.11,790.78 2261.53,772.512 278.917,1178.46 1230.11,1032.83 1230.11,437.771 714.405,686.417 1230.11,621.803 1745.82,552.114 215.886,780.801 
  238.806,1253.23 359.138,1152.08 359.138,949.778 215.886,1161.89 359.138,815.645 714.405,659.861 238.806,1079.18 359.138,852.18 238.806,1291.12 359.138,1152.08 
  238.806,1231.58 359.138,1012.87 714.405,898.527 1230.11,853.703 2261.53,840.509 215.886,913.411 238.806,767.607 278.917,666.458 359.138,538.921 714.405,490.883 
  1745.82,349.984 278.917,1133.81 359.138,1059.22 1230.11,984.622 359.138,1117.23 359.138,823.933 215.886,1072.58 238.806,630.768 359.138,216.697 359.138,856.409 
  359.138,914.088 359.138,1206.04 359.138,1147 359.138,870.279 359.138,915.272 359.138,1224.3 359.138,919.839 359.138,824.61 359.138,1016.93 359.138,1030.8 
  359.138,718.893 359.138,975.657 359.138,1221.77 359.138,730.564 359.138,579.854 359.138,517.439 359.138,370.282 359.138,591.695 359.138,920.177 359.138,1180.16 
  359.138,853.195 359.138,929.65 359.138,763.886 359.138,807.526 359.138,775.726 359.138,449.442 359.138,793.825 359.138,921.869 359.138,598.461 359.138,1229.88 
  359.138,834.589 359.138,854.887 359.138,889.224 359.138,772.512 359.138,946.057 359.138,782.492 359.138,817.844 359.138,843.892 359.138,736.146 359.138,957.728 
  359.138,1084.42 359.138,931.003 359.138,937.092 359.138,1000.86 359.138,862.668 359.138,1175.93 359.138,925.928 359.138,953.668 359.138,960.265 359.138,734.285 
  359.138,1279.11 359.138,1052.79 359.138,868.757 359.138,927.62 359.138,1081.88 359.138,1041.46 359.138,1181.51 359.138,797.039 359.138,1163.58 359.138,914.765 
  359.138,1340.68 359.138,1257.46 359.138,939.798 359.138,1087.29 359.138,982.423 359.138,643.284 359.138,598.122 359.138,792.81 359.138,726.335 359.138,1261.85 
  359.138,852.011 359.138,979.886 359.138,527.588 359.138,1274.37 359.138,1082.73 359.138,1260.33 359.138,818.351 359.138,703.162 359.138,732.086 359.138,1083.57 
  359.138,1042.98 359.138,1222.61 359.138,748.155 359.138,878.567 359.138,790.78 359.138,994.771 359.138,702.993 359.138,1029.78 359.138,1306.85 359.138,1060.57 
  359.138,993.418 359.138,1320.38 359.138,913.411 359.138,811.247 359.138,1028.94 359.138,1024.54 359.138,966.693 359.138,926.097 359.138,1069.36 359.138,1114.53 
  359.138,962.802 359.138,1225.66 359.138,1073.42 359.138,1081.04 359.138,1097.27 359.138,987.667 359.138,1000.86 359.138,862.668 359.138,1175.76 359.138,931.679 
  359.138,953.668 359.138,995.617 359.138,792.81 359.138,1279.11 359.138,1052.79 359.138,868.757 359.138,927.62 359.138,1081.88 359.138,1041.46 359.138,1181.34 
  359.138,831.714 359.138,1163.58 359.138,914.765 359.138,1340.68 359.138,1257.46 359.138,939.629 359.138,1087.29 359.138,982.254 359.138,643.284 359.138,597.953 
  359.138,792.81 359.138,726.166 359.138,1261.85 359.138,852.011 359.138,979.886 359.138,527.419 359.138,1274.37 359.138,1082.73 359.138,1260.33 359.138,818.351 
  359.138,703.162 359.138,732.086 359.138,1083.57 359.138,1042.81 359.138,1222.44 359.138,747.986 359.138,878.398 359.138,790.78 359.138,994.771 359.138,702.824 
  359.138,1029.78 359.138,1306.85 359.138,1060.57 359.138,993.418 359.138,1320.38 359.138,913.411 359.138,856.409 359.138,914.088 359.138,1206.04 359.138,1147 
  359.138,870.279 359.138,838.649 359.138,1224.3 359.138,919.839 359.138,824.44 359.138,1016.93 359.138,1030.8 359.138,718.893 359.138,975.657 359.138,1221.77 
  359.138,730.564 359.138,579.854 359.138,517.27 359.138,370.282 359.138,591.526 359.138,920.177 359.138,1180.16 359.138,853.195 359.138,887.87 359.138,763.886 
  359.138,807.526 359.138,744.265 359.138,449.273 359.138,793.825 359.138,921.7 359.138,598.291 359.138,1229.88 359.138,834.589 359.138,854.718 359.138,889.224 
  359.138,772.343 359.138,945.888 359.138,782.492 359.138,817.675 359.138,843.723 359.138,736.146 359.138,957.728 359.138,1084.25 359.138,930.834 359.138,937.092 
  
  "></polyline>
<path clip-path="url(#clip500)" d="
M1980.97 198.898 L2279.06 198.898 L2279.06 95.2176 L1980.97 95.2176  Z
  " fill="#ffffff" fill-rule="evenodd" fill-opacity="1"></path>
<polyline clip-path="url(#clip500)" style="stroke:#000000; stroke-linecap:round; stroke-linejoin:round; stroke-width:4; stroke-opacity:1; fill:none" points="
  1980.97,198.898 2279.06,198.898 2279.06,95.2176 1980.97,95.2176 1980.97,198.898 
  "></polyline>
<polyline clip-path="url(#clip500)" style="stroke:#009af9; stroke-linecap:round; stroke-linejoin:round; stroke-width:4; stroke-opacity:1; fill:none" points="
  2005.54,147.058 2152.93,147.058 
  "></polyline>
<path clip-path="url(#clip500)" d="M2191.34 166.745 Q2189.53 171.375 2187.82 172.787 Q2186.11 174.199 2183.24 174.199 L2179.84 174.199 L2179.84 170.634 L2182.34 170.634 Q2184.09 170.634 2185.07 169.8 Q2186.04 168.967 2187.22 165.865 L2187.98 163.921 L2177.5 138.412 L2182.01 138.412 L2190.11 158.689 L2198.22 138.412 L2202.73 138.412 L2191.34 166.745 Z" fill="#000000" fill-rule="evenodd" fill-opacity="1"></path><path clip-path="url(#clip500)" d="M2210.02 160.402 L2217.66 160.402 L2217.66 134.037 L2209.35 135.703 L2209.35 131.444 L2217.61 129.778 L2222.29 129.778 L2222.29 160.402 L2229.93 160.402 L2229.93 164.338 L2210.02 164.338 L2210.02 160.402 Z" fill="#000000" fill-rule="evenodd" fill-opacity="1"></path></svg>