<svg xmlns="http://www.w3.org/2000/svg" xmlns:xlink="http://www.w3.org/1999/xlink" width="600" height="400" viewBox="0 0 2400 1600">
<defs>
  <clipPath id="clip380">
    <rect x="0" y="0" width="2400" height="1600"></rect>
  </clipPath>
</defs>
<path clip-path="url(#clip380)" d="
M0 1600 L2400 1600 L2400 0 L0 0  Z
  " fill="#ffffff" fill-rule="evenodd" fill-opacity="1"></path>
<defs>
  <clipPath id="clip381">
    <rect x="480" y="0" width="1681" height="1600"></rect>
  </clipPath>
</defs>
<path clip-path="url(#clip380)" d="
M170.857 1486.45 L2352.76 1486.45 L2352.76 47.2441 L170.857 47.2441  Z
  " fill="#ffffff" fill-rule="evenodd" fill-opacity="1"></path>
<defs>
  <clipPath id="clip382">
    <rect x="170" y="47" width="2183" height="1440"></rect>
  </clipPath>
</defs>
<polyline clip-path="url(#clip382)" style="stroke:#000000; stroke-linecap:round; stroke-linejoin:round; stroke-width:2; stroke-opacity:0.1; fill:none" points="
  226.954,1486.45 226.954,47.2441 
  "></polyline>
<polyline clip-path="url(#clip382)" style="stroke:#000000; stroke-linecap:round; stroke-linejoin:round; stroke-width:2; stroke-opacity:0.1; fill:none" points="
  792.447,1486.45 792.447,47.2441 
  "></polyline>
<polyline clip-path="url(#clip382)" style="stroke:#000000; stroke-linecap:round; stroke-linejoin:round; stroke-width:2; stroke-opacity:0.1; fill:none" points="
  1357.94,1486.45 1357.94,47.2441 
  "></polyline>
<polyline clip-path="url(#clip382)" style="stroke:#000000; stroke-linecap:round; stroke-linejoin:round; stroke-width:2; stroke-opacity:0.1; fill:none" points="
  1923.43,1486.45 1923.43,47.2441 
  "></polyline>
<polyline clip-path="url(#clip380)" style="stroke:#000000; stroke-linecap:round; stroke-linejoin:round; stroke-width:4; stroke-opacity:1; fill:none" points="
  170.857,1486.45 2352.76,1486.45 
  "></polyline>
<polyline clip-path="url(#clip380)" style="stroke:#000000; stroke-linecap:round; stroke-linejoin:round; stroke-width:4; stroke-opacity:1; fill:none" points="
  226.954,1486.45 226.954,1467.55 
  "></polyline>
<polyline clip-path="url(#clip380)" style="stroke:#000000; stroke-linecap:round; stroke-linejoin:round; stroke-width:4; stroke-opacity:1; fill:none" points="
  792.447,1486.45 792.447,1467.55 
  "></polyline>
<polyline clip-path="url(#clip380)" style="stroke:#000000; stroke-linecap:round; stroke-linejoin:round; stroke-width:4; stroke-opacity:1; fill:none" points="
  1357.94,1486.45 1357.94,1467.55 
  "></polyline>
<polyline clip-path="url(#clip380)" style="stroke:#000000; stroke-linecap:round; stroke-linejoin:round; stroke-width:4; stroke-opacity:1; fill:none" points="
  1923.43,1486.45 1923.43,1467.55 
  "></polyline>
<path clip-path="url(#clip380)" d="M226.954 1517.37 Q223.343 1517.37 221.515 1520.93 Q219.709 1524.47 219.709 1531.6 Q219.709 1538.71 221.515 1542.27 Q223.343 1545.82 226.954 1545.82 Q230.589 1545.82 232.394 1542.27 Q234.223 1538.71 234.223 1531.6 Q234.223 1524.47 232.394 1520.93 Q230.589 1517.37 226.954 1517.37 M226.954 1513.66 Q232.764 1513.66 235.82 1518.27 Q238.899 1522.85 238.899 1531.6 Q238.899 1540.33 235.82 1544.94 Q232.764 1549.52 226.954 1549.52 Q221.144 1549.52 218.065 1544.94 Q215.01 1540.33 215.01 1531.6 Q215.01 1522.85 218.065 1518.27 Q221.144 1513.66 226.954 1513.66 Z" fill="#000000" fill-rule="evenodd" fill-opacity="1"></path><path clip-path="url(#clip380)" d="M752.054 1544.91 L759.693 1544.91 L759.693 1518.55 L751.383 1520.21 L751.383 1515.95 L759.647 1514.29 L764.323 1514.29 L764.323 1544.91 L771.961 1544.91 L771.961 1548.85 L752.054 1548.85 L752.054 1544.91 Z" fill="#000000" fill-rule="evenodd" fill-opacity="1"></path><path clip-path="url(#clip380)" d="M791.406 1517.37 Q787.795 1517.37 785.966 1520.93 Q784.16 1524.47 784.16 1531.6 Q784.16 1538.71 785.966 1542.27 Q787.795 1545.82 791.406 1545.82 Q795.04 1545.82 796.846 1542.27 Q798.674 1538.71 798.674 1531.6 Q798.674 1524.47 796.846 1520.93 Q795.04 1517.37 791.406 1517.37 M791.406 1513.66 Q797.216 1513.66 800.271 1518.27 Q803.35 1522.85 803.35 1531.6 Q803.35 1540.33 800.271 1544.94 Q797.216 1549.52 791.406 1549.52 Q785.596 1549.52 782.517 1544.94 Q779.461 1540.33 779.461 1531.6 Q779.461 1522.85 782.517 1518.27 Q785.596 1513.66 791.406 1513.66 Z" fill="#000000" fill-rule="evenodd" fill-opacity="1"></path><path clip-path="url(#clip380)" d="M821.568 1517.37 Q817.957 1517.37 816.128 1520.93 Q814.322 1524.47 814.322 1531.6 Q814.322 1538.71 816.128 1542.27 Q817.957 1545.82 821.568 1545.82 Q825.202 1545.82 827.007 1542.27 Q828.836 1538.71 828.836 1531.6 Q828.836 1524.47 827.007 1520.93 Q825.202 1517.37 821.568 1517.37 M821.568 1513.66 Q827.378 1513.66 830.433 1518.27 Q833.512 1522.85 833.512 1531.6 Q833.512 1540.33 830.433 1544.94 Q827.378 1549.52 821.568 1549.52 Q815.757 1549.52 812.679 1544.94 Q809.623 1540.33 809.623 1531.6 Q809.623 1522.85 812.679 1518.27 Q815.757 1513.66 821.568 1513.66 Z" fill="#000000" fill-rule="evenodd" fill-opacity="1"></path><path clip-path="url(#clip380)" d="M1321.63 1544.91 L1337.95 1544.91 L1337.95 1548.85 L1316.01 1548.85 L1316.01 1544.91 Q1318.67 1542.16 1323.25 1537.53 Q1327.86 1532.88 1329.04 1531.53 Q1331.29 1529.01 1332.17 1527.27 Q1333.07 1525.51 1333.07 1523.82 Q1333.07 1521.07 1331.12 1519.33 Q1329.2 1517.6 1326.1 1517.6 Q1323.9 1517.6 1321.45 1518.36 Q1319.02 1519.13 1316.24 1520.68 L1316.24 1515.95 Q1319.06 1514.82 1321.52 1514.24 Q1323.97 1513.66 1326.01 1513.66 Q1331.38 1513.66 1334.57 1516.35 Q1337.77 1519.03 1337.77 1523.52 Q1337.77 1525.65 1336.96 1527.57 Q1336.17 1529.47 1334.06 1532.07 Q1333.48 1532.74 1330.38 1535.95 Q1327.28 1539.15 1321.63 1544.91 Z" fill="#000000" fill-rule="evenodd" fill-opacity="1"></path><path clip-path="url(#clip380)" d="M1357.77 1517.37 Q1354.16 1517.37 1352.33 1520.93 Q1350.52 1524.47 1350.52 1531.6 Q1350.52 1538.71 1352.33 1542.27 Q1354.16 1545.82 1357.77 1545.82 Q1361.4 1545.82 1363.21 1542.27 Q1365.04 1538.71 1365.04 1531.6 Q1365.04 1524.47 1363.21 1520.93 Q1361.4 1517.37 1357.77 1517.37 M1357.77 1513.66 Q1363.58 1513.66 1366.63 1518.27 Q1369.71 1522.85 1369.71 1531.6 Q1369.71 1540.33 1366.63 1544.94 Q1363.58 1549.52 1357.77 1549.52 Q1351.96 1549.52 1348.88 1544.94 Q1345.82 1540.33 1345.82 1531.6 Q1345.82 1522.85 1348.88 1518.27 Q1351.96 1513.66 1357.77 1513.66 Z" fill="#000000" fill-rule="evenodd" fill-opacity="1"></path><path clip-path="url(#clip380)" d="M1387.93 1517.37 Q1384.32 1517.37 1382.49 1520.93 Q1380.68 1524.47 1380.68 1531.6 Q1380.68 1538.71 1382.49 1542.27 Q1384.32 1545.82 1387.93 1545.82 Q1391.56 1545.82 1393.37 1542.27 Q1395.2 1538.71 1395.2 1531.6 Q1395.2 1524.47 1393.37 1520.93 Q1391.56 1517.37 1387.93 1517.37 M1387.93 1513.66 Q1393.74 1513.66 1396.79 1518.27 Q1399.87 1522.85 1399.87 1531.6 Q1399.87 1540.33 1396.79 1544.94 Q1393.74 1549.52 1387.93 1549.52 Q1382.12 1549.52 1379.04 1544.94 Q1375.98 1540.33 1375.98 1531.6 Q1375.98 1522.85 1379.04 1518.27 Q1382.12 1513.66 1387.93 1513.66 Z" fill="#000000" fill-rule="evenodd" fill-opacity="1"></path><path clip-path="url(#clip380)" d="M1897.2 1530.21 Q1900.55 1530.93 1902.43 1533.2 Q1904.32 1535.47 1904.32 1538.8 Q1904.32 1543.92 1900.81 1546.72 Q1897.29 1549.52 1890.81 1549.52 Q1888.63 1549.52 1886.32 1549.08 Q1884.02 1548.66 1881.57 1547.81 L1881.57 1543.29 Q1883.51 1544.43 1885.83 1545.01 Q1888.14 1545.58 1890.67 1545.58 Q1895.07 1545.58 1897.36 1543.85 Q1899.67 1542.11 1899.67 1538.8 Q1899.67 1535.75 1897.52 1534.03 Q1895.39 1532.3 1891.57 1532.3 L1887.54 1532.3 L1887.54 1528.45 L1891.76 1528.45 Q1895.2 1528.45 1897.03 1527.09 Q1898.86 1525.7 1898.86 1523.11 Q1898.86 1520.45 1896.96 1519.03 Q1895.09 1517.6 1891.57 1517.6 Q1889.65 1517.6 1887.45 1518.01 Q1885.25 1518.43 1882.61 1519.31 L1882.61 1515.14 Q1885.27 1514.4 1887.59 1514.03 Q1889.93 1513.66 1891.99 1513.66 Q1897.31 1513.66 1900.41 1516.09 Q1903.51 1518.5 1903.51 1522.62 Q1903.51 1525.49 1901.87 1527.48 Q1900.23 1529.45 1897.2 1530.21 Z" fill="#000000" fill-rule="evenodd" fill-opacity="1"></path><path clip-path="url(#clip380)" d="M1923.19 1517.37 Q1919.58 1517.37 1917.75 1520.93 Q1915.95 1524.47 1915.95 1531.6 Q1915.95 1538.71 1917.75 1542.27 Q1919.58 1545.82 1923.19 1545.82 Q1926.82 1545.82 1928.63 1542.27 Q1930.46 1538.71 1930.46 1531.6 Q1930.46 1524.47 1928.63 1520.93 Q1926.82 1517.37 1923.19 1517.37 M1923.19 1513.66 Q1929 1513.66 1932.06 1518.27 Q1935.13 1522.85 1935.13 1531.6 Q1935.13 1540.33 1932.06 1544.94 Q1929 1549.52 1923.19 1549.52 Q1917.38 1549.52 1914.3 1544.94 Q1911.25 1540.33 1911.25 1531.6 Q1911.25 1522.85 1914.3 1518.27 Q1917.38 1513.66 1923.19 1513.66 Z" fill="#000000" fill-rule="evenodd" fill-opacity="1"></path><path clip-path="url(#clip380)" d="M1953.35 1517.37 Q1949.74 1517.37 1947.91 1520.93 Q1946.11 1524.47 1946.11 1531.6 Q1946.11 1538.71 1947.91 1542.27 Q1949.74 1545.82 1953.35 1545.82 Q1956.99 1545.82 1958.79 1542.27 Q1960.62 1538.71 1960.62 1531.6 Q1960.62 1524.47 1958.79 1520.93 Q1956.99 1517.37 1953.35 1517.37 M1953.35 1513.66 Q1959.16 1513.66 1962.22 1518.27 Q1965.3 1522.85 1965.3 1531.6 Q1965.3 1540.33 1962.22 1544.94 Q1959.16 1549.52 1953.35 1549.52 Q1947.54 1549.52 1944.46 1544.94 Q1941.41 1540.33 1941.41 1531.6 Q1941.41 1522.85 1944.46 1518.27 Q1947.54 1513.66 1953.35 1513.66 Z" fill="#000000" fill-rule="evenodd" fill-opacity="1"></path><polyline clip-path="url(#clip382)" style="stroke:#000000; stroke-linecap:round; stroke-linejoin:round; stroke-width:2; stroke-opacity:0.1; fill:none" points="
  170.857,1465.24 2352.76,1465.24 
  "></polyline>
<polyline clip-path="url(#clip382)" style="stroke:#000000; stroke-linecap:round; stroke-linejoin:round; stroke-width:2; stroke-opacity:0.1; fill:none" points="
  170.857,1248.34 2352.76,1248.34 
  "></polyline>
<polyline clip-path="url(#clip382)" style="stroke:#000000; stroke-linecap:round; stroke-linejoin:round; stroke-width:2; stroke-opacity:0.1; fill:none" points="
  170.857,1031.45 2352.76,1031.45 
  "></polyline>
<polyline clip-path="url(#clip382)" style="stroke:#000000; stroke-linecap:round; stroke-linejoin:round; stroke-width:2; stroke-opacity:0.1; fill:none" points="
  170.857,814.562 2352.76,814.562 
  "></polyline>
<polyline clip-path="url(#clip382)" style="stroke:#000000; stroke-linecap:round; stroke-linejoin:round; stroke-width:2; stroke-opacity:0.1; fill:none" points="
  170.857,597.671 2352.76,597.671 
  "></polyline>
<polyline clip-path="url(#clip382)" style="stroke:#000000; stroke-linecap:round; stroke-linejoin:round; stroke-width:2; stroke-opacity:0.1; fill:none" points="
  170.857,380.78 2352.76,380.78 
  "></polyline>
<polyline clip-path="url(#clip382)" style="stroke:#000000; stroke-linecap:round; stroke-linejoin:round; stroke-width:2; stroke-opacity:0.1; fill:none" points="
  170.857,163.888 2352.76,163.888 
  "></polyline>
<polyline clip-path="url(#clip380)" style="stroke:#000000; stroke-linecap:round; stroke-linejoin:round; stroke-width:4; stroke-opacity:1; fill:none" points="
  170.857,1486.45 170.857,47.2441 
  "></polyline>
<polyline clip-path="url(#clip380)" style="stroke:#000000; stroke-linecap:round; stroke-linejoin:round; stroke-width:4; stroke-opacity:1; fill:none" points="
  170.857,1465.24 189.755,1465.24 
  "></polyline>
<polyline clip-path="url(#clip380)" style="stroke:#000000; stroke-linecap:round; stroke-linejoin:round; stroke-width:4; stroke-opacity:1; fill:none" points="
  170.857,1248.34 189.755,1248.34 
  "></polyline>
<polyline clip-path="url(#clip380)" style="stroke:#000000; stroke-linecap:round; stroke-linejoin:round; stroke-width:4; stroke-opacity:1; fill:none" points="
  170.857,1031.45 189.755,1031.45 
  "></polyline>
<polyline clip-path="url(#clip380)" style="stroke:#000000; stroke-linecap:round; stroke-linejoin:round; stroke-width:4; stroke-opacity:1; fill:none" points="
  170.857,814.562 189.755,814.562 
  "></polyline>
<polyline clip-path="url(#clip380)" style="stroke:#000000; stroke-linecap:round; stroke-linejoin:round; stroke-width:4; stroke-opacity:1; fill:none" points="
  170.857,597.671 189.755,597.671 
  "></polyline>
<polyline clip-path="url(#clip380)" style="stroke:#000000; stroke-linecap:round; stroke-linejoin:round; stroke-width:4; stroke-opacity:1; fill:none" points="
  170.857,380.78 189.755,380.78 
  "></polyline>
<polyline clip-path="url(#clip380)" style="stroke:#000000; stroke-linecap:round; stroke-linejoin:round; stroke-width:4; stroke-opacity:1; fill:none" points="
  170.857,163.888 189.755,163.888 
  "></polyline>
<path clip-path="url(#clip380)" d="M53.3995 1478.58 L61.0384 1478.58 L61.0384 1452.22 L52.7282 1453.88 L52.7282 1449.62 L60.9921 1447.96 L65.668 1447.96 L65.668 1478.58 L73.3068 1478.58 L73.3068 1482.52 L53.3995 1482.52 L53.3995 1478.58 Z" fill="#000000" fill-rule="evenodd" fill-opacity="1"></path><path clip-path="url(#clip380)" d="M86.779 1478.58 L103.098 1478.58 L103.098 1482.52 L81.154 1482.52 L81.154 1478.58 Q83.816 1475.83 88.3993 1471.2 Q93.0058 1466.54 94.1863 1465.2 Q96.4317 1462.68 97.3113 1460.94 Q98.2141 1459.18 98.2141 1457.49 Q98.2141 1454.74 96.2697 1453 Q94.3484 1451.27 91.2465 1451.27 Q89.0475 1451.27 86.5938 1452.03 Q84.1632 1452.79 81.3855 1454.34 L81.3855 1449.62 Q84.2095 1448.49 86.6632 1447.91 Q89.1169 1447.33 91.1539 1447.33 Q96.5243 1447.33 99.7187 1450.02 Q102.913 1452.7 102.913 1457.19 Q102.913 1459.32 102.103 1461.24 Q101.316 1463.14 99.2095 1465.73 Q98.6308 1466.4 95.5289 1469.62 Q92.4271 1472.82 86.779 1478.58 Z" fill="#000000" fill-rule="evenodd" fill-opacity="1"></path><path clip-path="url(#clip380)" d="M122.913 1451.03 Q119.302 1451.03 117.473 1454.6 Q115.668 1458.14 115.668 1465.27 Q115.668 1472.38 117.473 1475.94 Q119.302 1479.48 122.913 1479.48 Q126.547 1479.48 128.353 1475.94 Q130.182 1472.38 130.182 1465.27 Q130.182 1458.14 128.353 1454.6 Q126.547 1451.03 122.913 1451.03 M122.913 1447.33 Q128.723 1447.33 131.779 1451.94 Q134.857 1456.52 134.857 1465.27 Q134.857 1474 131.779 1478.6 Q128.723 1483.19 122.913 1483.19 Q117.103 1483.19 114.024 1478.6 Q110.969 1474 110.969 1465.27 Q110.969 1456.52 114.024 1451.94 Q117.103 1447.33 122.913 1447.33 Z" fill="#000000" fill-rule="evenodd" fill-opacity="1"></path><path clip-path="url(#clip380)" d="M53.3995 1261.69 L61.0384 1261.69 L61.0384 1235.32 L52.7282 1236.99 L52.7282 1232.73 L60.9921 1231.06 L65.668 1231.06 L65.668 1261.69 L73.3068 1261.69 L73.3068 1265.62 L53.3995 1265.62 L53.3995 1261.69 Z" fill="#000000" fill-rule="evenodd" fill-opacity="1"></path><path clip-path="url(#clip380)" d="M95.5984 1235.14 L83.7929 1253.59 L95.5984 1253.59 L95.5984 1235.14 M94.3715 1231.06 L100.251 1231.06 L100.251 1253.59 L105.182 1253.59 L105.182 1257.48 L100.251 1257.48 L100.251 1265.62 L95.5984 1265.62 L95.5984 1257.48 L79.9966 1257.48 L79.9966 1252.96 L94.3715 1231.06 Z" fill="#000000" fill-rule="evenodd" fill-opacity="1"></path><path clip-path="url(#clip380)" d="M122.913 1234.14 Q119.302 1234.14 117.473 1237.71 Q115.668 1241.25 115.668 1248.38 Q115.668 1255.49 117.473 1259.05 Q119.302 1262.59 122.913 1262.59 Q126.547 1262.59 128.353 1259.05 Q130.182 1255.49 130.182 1248.38 Q130.182 1241.25 128.353 1237.71 Q126.547 1234.14 122.913 1234.14 M122.913 1230.44 Q128.723 1230.44 131.779 1235.05 Q134.857 1239.63 134.857 1248.38 Q134.857 1257.11 131.779 1261.71 Q128.723 1266.3 122.913 1266.3 Q117.103 1266.3 114.024 1261.71 Q110.969 1257.11 110.969 1248.38 Q110.969 1239.63 114.024 1235.05 Q117.103 1230.44 122.913 1230.44 Z" fill="#000000" fill-rule="evenodd" fill-opacity="1"></path><path clip-path="url(#clip380)" d="M53.3995 1044.8 L61.0384 1044.8 L61.0384 1018.43 L52.7282 1020.1 L52.7282 1015.84 L60.9921 1014.17 L65.668 1014.17 L65.668 1044.8 L73.3068 1044.8 L73.3068 1048.73 L53.3995 1048.73 L53.3995 1044.8 Z" fill="#000000" fill-rule="evenodd" fill-opacity="1"></path><path clip-path="url(#clip380)" d="M93.3299 1029.59 Q90.1817 1029.59 88.3299 1031.74 Q86.5012 1033.9 86.5012 1037.65 Q86.5012 1041.37 88.3299 1043.55 Q90.1817 1045.7 93.3299 1045.7 Q96.478 1045.7 98.3067 1043.55 Q100.159 1041.37 100.159 1037.65 Q100.159 1033.9 98.3067 1031.74 Q96.478 1029.59 93.3299 1029.59 M102.612 1014.94 L102.612 1019.2 Q100.853 1018.36 99.0474 1017.92 Q97.265 1017.48 95.5058 1017.48 Q90.8762 1017.48 88.4225 1020.61 Q85.9919 1023.73 85.6447 1030.05 Q87.0105 1028.04 89.0706 1026.97 Q91.1308 1025.89 93.6076 1025.89 Q98.8159 1025.89 101.825 1029.06 Q104.858 1032.21 104.858 1037.65 Q104.858 1042.97 101.709 1046.19 Q98.5613 1049.4 93.3299 1049.4 Q87.3345 1049.4 84.1632 1044.82 Q80.992 1040.21 80.992 1031.49 Q80.992 1023.29 84.8808 1018.43 Q88.7697 1013.55 95.3206 1013.55 Q97.0798 1013.55 98.8622 1013.9 Q100.668 1014.24 102.612 1014.94 Z" fill="#000000" fill-rule="evenodd" fill-opacity="1"></path><path clip-path="url(#clip380)" d="M122.913 1017.25 Q119.302 1017.25 117.473 1020.82 Q115.668 1024.36 115.668 1031.49 Q115.668 1038.59 117.473 1042.16 Q119.302 1045.7 122.913 1045.7 Q126.547 1045.7 128.353 1042.16 Q130.182 1038.59 130.182 1031.49 Q130.182 1024.36 128.353 1020.82 Q126.547 1017.25 122.913 1017.25 M122.913 1013.55 Q128.723 1013.55 131.779 1018.15 Q134.857 1022.74 134.857 1031.49 Q134.857 1040.21 131.779 1044.82 Q128.723 1049.4 122.913 1049.4 Q117.103 1049.4 114.024 1044.82 Q110.969 1040.21 110.969 1031.49 Q110.969 1022.74 114.024 1018.15 Q117.103 1013.55 122.913 1013.55 Z" fill="#000000" fill-rule="evenodd" fill-opacity="1"></path><path clip-path="url(#clip380)" d="M53.3995 827.907 L61.0384 827.907 L61.0384 801.541 L52.7282 803.208 L52.7282 798.949 L60.9921 797.282 L65.668 797.282 L65.668 827.907 L73.3068 827.907 L73.3068 831.842 L53.3995 831.842 L53.3995 827.907 Z" fill="#000000" fill-rule="evenodd" fill-opacity="1"></path><path clip-path="url(#clip380)" d="M92.7512 815.43 Q89.4178 815.43 87.4966 817.213 Q85.5984 818.995 85.5984 822.12 Q85.5984 825.245 87.4966 827.027 Q89.4178 828.81 92.7512 828.81 Q96.0845 828.81 98.0058 827.027 Q99.927 825.222 99.927 822.12 Q99.927 818.995 98.0058 817.213 Q96.1076 815.43 92.7512 815.43 M88.0753 813.439 Q85.066 812.699 83.3762 810.638 Q81.7096 808.578 81.7096 805.615 Q81.7096 801.472 84.6494 799.064 Q87.6123 796.657 92.7512 796.657 Q97.9132 796.657 100.853 799.064 Q103.793 801.472 103.793 805.615 Q103.793 808.578 102.103 810.638 Q100.436 812.699 97.4502 813.439 Q100.83 814.226 102.705 816.518 Q104.603 818.81 104.603 822.12 Q104.603 827.143 101.524 829.828 Q98.4687 832.513 92.7512 832.513 Q87.0336 832.513 83.9549 829.828 Q80.8994 827.143 80.8994 822.12 Q80.8994 818.81 82.7975 816.518 Q84.6956 814.226 88.0753 813.439 M86.3623 806.055 Q86.3623 808.74 88.029 810.245 Q89.7188 811.75 92.7512 811.75 Q95.7604 811.75 97.4502 810.245 Q99.1632 808.74 99.1632 806.055 Q99.1632 803.37 97.4502 801.865 Q95.7604 800.361 92.7512 800.361 Q89.7188 800.361 88.029 801.865 Q86.3623 803.37 86.3623 806.055 Z" fill="#000000" fill-rule="evenodd" fill-opacity="1"></path><path clip-path="url(#clip380)" d="M122.913 800.361 Q119.302 800.361 117.473 803.926 Q115.668 807.467 115.668 814.597 Q115.668 821.703 117.473 825.268 Q119.302 828.81 122.913 828.81 Q126.547 828.81 128.353 825.268 Q130.182 821.703 130.182 814.597 Q130.182 807.467 128.353 803.926 Q126.547 800.361 122.913 800.361 M122.913 796.657 Q128.723 796.657 131.779 801.264 Q134.857 805.847 134.857 814.597 Q134.857 823.324 131.779 827.93 Q128.723 832.513 122.913 832.513 Q117.103 832.513 114.024 827.93 Q110.969 823.324 110.969 814.597 Q110.969 805.847 114.024 801.264 Q117.103 796.657 122.913 796.657 Z" fill="#000000" fill-rule="evenodd" fill-opacity="1"></path><path clip-path="url(#clip380)" d="M56.6171 611.016 L72.9365 611.016 L72.9365 614.951 L50.9921 614.951 L50.9921 611.016 Q53.6541 608.261 58.2375 603.631 Q62.8439 598.979 64.0245 597.636 Q66.2698 595.113 67.1494 593.377 Q68.0522 591.618 68.0522 589.928 Q68.0522 587.173 66.1078 585.437 Q64.1865 583.701 61.0847 583.701 Q58.8856 583.701 56.4319 584.465 Q54.0014 585.229 51.2236 586.78 L51.2236 582.057 Q54.0477 580.923 56.5014 580.344 Q58.955 579.766 60.9921 579.766 Q66.3624 579.766 69.5568 582.451 Q72.7513 585.136 72.7513 589.627 Q72.7513 591.756 71.9411 593.678 Q71.1541 595.576 69.0476 598.168 Q68.4689 598.84 65.367 602.057 Q62.2652 605.252 56.6171 611.016 Z" fill="#000000" fill-rule="evenodd" fill-opacity="1"></path><path clip-path="url(#clip380)" d="M92.7512 583.469 Q89.1401 583.469 87.3114 587.034 Q85.5058 590.576 85.5058 597.706 Q85.5058 604.812 87.3114 608.377 Q89.1401 611.918 92.7512 611.918 Q96.3854 611.918 98.1909 608.377 Q100.02 604.812 100.02 597.706 Q100.02 590.576 98.1909 587.034 Q96.3854 583.469 92.7512 583.469 M92.7512 579.766 Q98.5613 579.766 101.617 584.372 Q104.696 588.956 104.696 597.706 Q104.696 606.432 101.617 611.039 Q98.5613 615.622 92.7512 615.622 Q86.941 615.622 83.8623 611.039 Q80.8068 606.432 80.8068 597.706 Q80.8068 588.956 83.8623 584.372 Q86.941 579.766 92.7512 579.766 Z" fill="#000000" fill-rule="evenodd" fill-opacity="1"></path><path clip-path="url(#clip380)" d="M122.913 583.469 Q119.302 583.469 117.473 587.034 Q115.668 590.576 115.668 597.706 Q115.668 604.812 117.473 608.377 Q119.302 611.918 122.913 611.918 Q126.547 611.918 128.353 608.377 Q130.182 604.812 130.182 597.706 Q130.182 590.576 128.353 587.034 Q126.547 583.469 122.913 583.469 M122.913 579.766 Q128.723 579.766 131.779 584.372 Q134.857 588.956 134.857 597.706 Q134.857 606.432 131.779 611.039 Q128.723 615.622 122.913 615.622 Q117.103 615.622 114.024 611.039 Q110.969 606.432 110.969 597.706 Q110.969 588.956 114.024 584.372 Q117.103 579.766 122.913 579.766 Z" fill="#000000" fill-rule="evenodd" fill-opacity="1"></path><path clip-path="url(#clip380)" d="M56.6171 394.124 L72.9365 394.124 L72.9365 398.06 L50.9921 398.06 L50.9921 394.124 Q53.6541 391.37 58.2375 386.74 Q62.8439 382.087 64.0245 380.745 Q66.2698 378.222 67.1494 376.486 Q68.0522 374.726 68.0522 373.036 Q68.0522 370.282 66.1078 368.546 Q64.1865 366.81 61.0847 366.81 Q58.8856 366.81 56.4319 367.574 Q54.0014 368.337 51.2236 369.888 L51.2236 365.166 Q54.0477 364.032 56.5014 363.453 Q58.955 362.875 60.9921 362.875 Q66.3624 362.875 69.5568 365.56 Q72.7513 368.245 72.7513 372.736 Q72.7513 374.865 71.9411 376.786 Q71.1541 378.685 69.0476 381.277 Q68.4689 381.948 65.367 385.166 Q62.2652 388.36 56.6171 394.124 Z" fill="#000000" fill-rule="evenodd" fill-opacity="1"></path><path clip-path="url(#clip380)" d="M86.779 394.124 L103.098 394.124 L103.098 398.06 L81.154 398.06 L81.154 394.124 Q83.816 391.37 88.3993 386.74 Q93.0058 382.087 94.1863 380.745 Q96.4317 378.222 97.3113 376.486 Q98.2141 374.726 98.2141 373.036 Q98.2141 370.282 96.2697 368.546 Q94.3484 366.81 91.2465 366.81 Q89.0475 366.81 86.5938 367.574 Q84.1632 368.337 81.3855 369.888 L81.3855 365.166 Q84.2095 364.032 86.6632 363.453 Q89.1169 362.875 91.1539 362.875 Q96.5243 362.875 99.7187 365.56 Q102.913 368.245 102.913 372.736 Q102.913 374.865 102.103 376.786 Q101.316 378.685 99.2095 381.277 Q98.6308 381.948 95.5289 385.166 Q92.4271 388.36 86.779 394.124 Z" fill="#000000" fill-rule="evenodd" fill-opacity="1"></path><path clip-path="url(#clip380)" d="M122.913 366.578 Q119.302 366.578 117.473 370.143 Q115.668 373.685 115.668 380.814 Q115.668 387.921 117.473 391.485 Q119.302 395.027 122.913 395.027 Q126.547 395.027 128.353 391.485 Q130.182 387.921 130.182 380.814 Q130.182 373.685 128.353 370.143 Q126.547 366.578 122.913 366.578 M122.913 362.875 Q128.723 362.875 131.779 367.481 Q134.857 372.064 134.857 380.814 Q134.857 389.541 131.779 394.147 Q128.723 398.731 122.913 398.731 Q117.103 398.731 114.024 394.147 Q110.969 389.541 110.969 380.814 Q110.969 372.064 114.024 367.481 Q117.103 362.875 122.913 362.875 Z" fill="#000000" fill-rule="evenodd" fill-opacity="1"></path><path clip-path="url(#clip380)" d="M56.6171 177.233 L72.9365 177.233 L72.9365 181.168 L50.9921 181.168 L50.9921 177.233 Q53.6541 174.478 58.2375 169.849 Q62.8439 165.196 64.0245 163.854 Q66.2698 161.33 67.1494 159.594 Q68.0522 157.835 68.0522 156.145 Q68.0522 153.391 66.1078 151.654 Q64.1865 149.918 61.0847 149.918 Q58.8856 149.918 56.4319 150.682 Q54.0014 151.446 51.2236 152.997 L51.2236 148.275 Q54.0477 147.141 56.5014 146.562 Q58.955 145.983 60.9921 145.983 Q66.3624 145.983 69.5568 148.668 Q72.7513 151.354 72.7513 155.844 Q72.7513 157.974 71.9411 159.895 Q71.1541 161.793 69.0476 164.386 Q68.4689 165.057 65.367 168.275 Q62.2652 171.469 56.6171 177.233 Z" fill="#000000" fill-rule="evenodd" fill-opacity="1"></path><path clip-path="url(#clip380)" d="M95.5984 150.682 L83.7929 169.131 L95.5984 169.131 L95.5984 150.682 M94.3715 146.608 L100.251 146.608 L100.251 169.131 L105.182 169.131 L105.182 173.02 L100.251 173.02 L100.251 181.168 L95.5984 181.168 L95.5984 173.02 L79.9966 173.02 L79.9966 168.506 L94.3715 146.608 Z" fill="#000000" fill-rule="evenodd" fill-opacity="1"></path><path clip-path="url(#clip380)" d="M122.913 149.687 Q119.302 149.687 117.473 153.252 Q115.668 156.793 115.668 163.923 Q115.668 171.029 117.473 174.594 Q119.302 178.136 122.913 178.136 Q126.547 178.136 128.353 174.594 Q130.182 171.029 130.182 163.923 Q130.182 156.793 128.353 153.252 Q126.547 149.687 122.913 149.687 M122.913 145.983 Q128.723 145.983 131.779 150.59 Q134.857 155.173 134.857 163.923 Q134.857 172.65 131.779 177.256 Q128.723 181.84 122.913 181.84 Q117.103 181.84 114.024 177.256 Q110.969 172.65 110.969 163.923 Q110.969 155.173 114.024 150.59 Q117.103 145.983 122.913 145.983 Z" fill="#000000" fill-rule="evenodd" fill-opacity="1"></path><polyline clip-path="url(#clip382)" style="stroke:#009af9; stroke-linecap:round; stroke-linejoin:round; stroke-width:4; stroke-opacity:1; fill:none" points="
  385.292,1009.76 385.292,1009.76 1753.79,294.023 2291,294.023 2262.73,684.427 735.898,294.023 2291,294.023 385.292,294.023 
  735.898,684.427 385.292,684.427 1753.79,294.023 735.898,294.023 385.292,294.023 735.898,294.023 735.898,684.427 2291,294.023 735.898,294.023 1244.84,294.023 
  385.292,684.427 243.919,684.427 1244.84,684.427 2291,294.023 1753.79,294.023 1244.84,294.023 385.292,294.023 266.539,294.023 
  2291,294.023 1244.84,684.427 1753.79,294.023 2291,294.023 1753.79,294.023 385.292,294.023 735.898,294.023 1244.84,294.023 
  735.898,294.023 2291,294.023 1244.84,294.023 735.898,294.023 266.539,294.023 243.919,684.427 1244.84,294.023 266.539,294.023 
  1244.84,294.023 735.898,294.023 266.539,684.427 2291,294.023 243.919,684.427 1244.84,294.023 385.292,294.023 
  1753.79,294.023 243.919,684.427 1753.79,294.023 1244.84,294.023 1753.79,294.023 2262.73,684.427 266.539,294.023 385.292,294.023 385.292,1183.28 
  243.919,921.923 243.919,863.363 243.919,1101.94 243.919,1124.72 243.919,1393.66 243.919,802.633 243.919,1272.2 243.919,1101.94 243.919,1054.23 243.919,1228.82 
  243.919,1101.94 243.919,1078.08 243.919,1168.09 243.919,978.315 243.919,773.353 243.919,1097.61 243.919,978.315 243.919,1197.38 243.919,978.315 243.919,749.495 
  243.919,1184.36 243.919,978.315 243.919,869.869 266.539,921.923 266.539,863.363 266.539,1101.94 266.539,1124.72 266.539,1393.66 266.539,802.633 266.539,1272.2 
  266.539,1101.94 266.539,1054.23 266.539,1228.82 266.539,1101.94 266.539,1078.08 266.539,1168.09 266.539,978.315 266.539,773.353 266.539,1097.61 266.539,978.315 
  266.539,1197.38 266.539,978.315 266.539,749.495 266.539,1184.36 266.539,978.315 266.539,869.869 385.292,921.923 385.292,863.363 385.292,1101.94 385.292,1124.72 
  385.292,1393.66 385.292,802.633 385.292,1272.2 385.292,1101.94 385.292,1054.23 385.292,1228.82 385.292,1101.94 385.292,1078.08 385.292,1168.09 385.292,978.315 
  385.292,773.353 385.292,1097.61 385.292,978.315 385.292,1197.38 385.292,978.315 385.292,749.495 385.292,1184.36 385.292,978.315 385.292,869.869 543.63,921.923 
  543.63,863.363 543.63,1101.94 543.63,1124.72 543.63,1393.66 543.63,802.633 543.63,1272.2 543.63,1101.94 543.63,1054.23 543.63,1228.82 543.63,1101.94 
  543.63,1078.08 543.63,1168.09 543.63,978.315 543.63,773.353 543.63,1097.61 543.63,978.315 543.63,1197.38 543.63,978.315 543.63,749.495 543.63,1184.36 
  543.63,978.315 543.63,869.869 741.553,921.923 741.553,863.363 741.553,1101.94 741.553,1124.72 741.553,1393.66 741.553,802.633 741.553,1272.2 741.553,1101.94 
  741.553,1054.23 741.553,1228.82 741.553,1101.94 741.553,1078.08 741.553,1168.09 741.553,978.315 741.553,1097.61 741.553,978.315 741.553,1197.38 741.553,978.315 
  741.553,749.495 741.553,1184.36 741.553,978.315 741.553,869.869 243.919,713.708 306.123,713.708 385.292,713.708 543.63,713.708 792.447,713.708 243.919,620.444 
  306.123,620.444 385.292,620.444 543.63,620.444 792.447,620.444 243.919,970.724 306.123,970.724 385.292,970.724 543.63,970.724 792.447,970.724 243.919,1008.68 
  306.123,1008.68 385.292,1008.68 543.63,1008.68 792.447,1008.68 243.919,811.309 306.123,811.309 385.292,811.309 543.63,811.309 792.447,811.309 243.919,646.471 
  306.123,646.471 385.292,646.471 543.63,646.471 792.447,646.471 243.919,1010.85 306.123,1010.85 385.292,1010.85 543.63,1010.85 792.447,1010.85 243.919,852.518 
  306.123,852.518 385.292,852.518 543.63,852.518 792.447,852.518 243.919,1445.72 306.123,1445.72 385.292,1445.72 543.63,1445.72 792.447,1445.72 243.919,796.126 
  306.123,796.126 385.292,796.126 543.63,796.126 792.447,796.126 243.919,796.126 306.123,796.126 385.292,796.126 543.63,796.126 792.447,796.126 243.919,649.725 
  306.123,649.725 385.292,649.725 543.63,649.725 792.447,649.725 243.919,741.903 306.123,741.903 385.292,741.903 543.63,741.903 792.447,741.903 243.919,734.312 
  306.123,734.312 385.292,734.312 543.63,734.312 792.447,734.312 243.919,1039.04 306.123,1039.04 385.292,1039.04 543.63,1039.04 792.447,1039.04 243.919,1037.96 
  306.123,1037.96 385.292,1037.96 543.63,1037.96 792.447,1037.96 243.919,1042.3 306.123,1042.3 385.292,1042.3 543.63,1042.3 792.447,1042.3 243.919,879.629 
  306.123,879.629 385.292,879.629 543.63,879.629 792.447,879.629 243.919,722.383 306.123,722.383 385.292,722.383 543.63,722.383 792.447,722.383 243.919,722.383 
  306.123,722.383 385.292,722.383 543.63,722.383 792.447,722.383 243.919,927.346 306.123,927.346 385.292,927.346 543.63,927.346 792.447,927.346 243.919,920.839 
  306.123,920.839 385.292,920.839 543.63,920.839 792.447,920.839 243.919,1049.89 306.123,1049.89 385.292,1049.89 543.63,1049.89 792.447,1049.89 243.919,943.612 
  306.123,943.612 385.292,943.612 543.63,943.612 792.447,943.612 243.919,1024.95 306.123,1024.95 385.292,1024.95 543.63,1024.95 792.447,1024.95 243.919,906.741 
  306.123,906.741 385.292,906.741 543.63,906.741 792.447,906.741 243.919,1182.19 306.123,1182.19 385.292,1182.19 543.63,1182.19 792.447,1182.19 243.919,1052.06 
  306.123,1052.06 385.292,1052.06 543.63,1052.06 792.447,1052.06 243.919,1180.02 306.123,1180.02 385.292,1180.02 543.63,1180.02 792.447,1180.02 243.919,1212.56 
  306.123,1212.56 385.292,1212.56 543.63,1212.56 792.447,1212.56 243.919,1036.88 306.123,1036.88 385.292,1036.88 543.63,1036.88 792.447,1036.88 243.919,870.954 
  306.123,870.954 385.292,870.954 543.63,870.954 792.447,870.954 243.919,1087.85 306.123,1087.85 385.292,1087.85 543.63,1087.85 792.447,1087.85 243.919,1090.01 
  306.123,1090.01 385.292,1090.01 543.63,1090.01 792.447,1090.01 243.919,1023.86 306.123,1023.86 385.292,1023.86 543.63,1023.86 792.447,1023.86 243.919,1239.67 
  306.123,1239.67 385.292,1239.67 543.63,1239.67 792.447,1239.67 243.919,1079.17 306.123,1079.17 385.292,1079.17 543.63,1079.17 792.447,1079.17 243.919,1047.72 
  306.123,1047.72 385.292,1047.72 543.63,1047.72 792.447,1047.72 243.919,439.34 306.123,439.34 385.292,439.34 543.63,439.34 792.447,439.34 385.292,1248.34 
  385.292,1226.66 385.292,1194.12 385.292,651.894 385.292,977.231 385.292,1009.76 385.292,923.008 385.292,760.339 385.292,868.785 385.292,1053.14 385.292,597.671 
  385.292,955.541 385.292,716.961 385.292,868.785 385.292,706.116 385.292,1009.76 385.292,771.184 385.292,792.873 385.292,716.961 
  385.292,1042.3 385.292,1009.76 385.292,998.92 385.292,1031.45 385.292,1009.76 385.292,1129.05 243.919,990.244 243.919,867.7 243.919,815.647 243.919,863.363 
  243.919,1066.16 243.919,979.399 243.919,988.075 243.919,898.065 243.919,959.879 243.919,686.596 243.919,1040.13 243.919,920.839 243.919,674.667 306.123,990.244 
  306.123,867.7 306.123,815.647 306.123,863.363 306.123,1066.16 306.123,979.399 306.123,988.075 306.123,898.065 306.123,959.879 306.123,686.596 306.123,1040.13 
  306.123,920.839 306.123,674.667 385.292,990.244 385.292,867.7 385.292,815.647 385.292,863.363 385.292,1066.16 385.292,979.399 385.292,988.075 385.292,898.065 
  385.292,959.879 385.292,686.596 385.292,1040.13 385.292,920.839 385.292,674.667 543.63,990.244 543.63,867.7 543.63,815.647 543.63,863.363 543.63,1066.16 
  543.63,979.399 543.63,988.075 543.63,898.065 543.63,959.879 543.63,686.596 543.63,1040.13 543.63,920.839 543.63,674.667 792.447,990.244 792.447,867.7 
  792.447,815.647 792.447,863.363 792.447,1066.16 792.447,979.399 792.447,988.075 792.447,898.065 792.447,959.879 792.447,686.596 792.447,1040.13 792.447,920.839 
  792.447,674.667 385.292,1009.76 243.919,1009.76 266.539,1009.76 
  543.63,1009.76 385.292,1063.99 243.919,1063.99 
  266.539,1063.99 543.63,1063.99 385.292,1194.12 385.292,489.225 
  385.292,586.826 243.919,489.225 266.539,489.225 543.63,489.225 243.919,586.826 266.539,586.826 543.63,586.826 385.292,836.251 243.919,836.251 385.292,944.697 
  266.539,836.251 543.63,836.251 243.919,944.697 266.539,944.697 543.63,944.697 385.292,532.603 243.919,532.603 266.539,532.603 543.63,532.603 385.292,825.407 
  243.919,825.407 266.539,825.407 543.63,825.407 385.292,1096.52 243.919,1096.52 266.539,1096.52 543.63,1096.52 
  385.292,402.469 735.898,684.427 243.919,684.427 735.898,684.427 385.292,684.427 266.539,684.427 735.898,684.427 
  243.919,684.427 735.898,684.427 266.539,684.427 385.292,684.427 266.539,684.427 385.292,684.427 735.898,684.427 
  266.539,684.427 243.919,684.427 266.539,752.748 385.292,752.748 266.539,752.748 385.292,752.748 
  266.539,752.748 385.292,752.748 266.539,752.748 385.292,752.748 266.539,752.748 385.292,752.748 
  266.539,752.748 385.292,752.748 266.539,752.748 385.292,752.748 266.539,752.748 385.292,752.748 266.539,752.748 385.292,752.748 
  266.539,752.748 385.292,752.748 266.539,752.748 385.292,752.748 266.539,752.748 385.292,752.748 266.539,752.748 385.292,752.748 
  266.539,752.748 385.292,752.748 266.539,752.748 385.292,752.748 266.539,752.748 385.292,752.748 243.919,630.204 266.539,630.204 
  306.123,630.204 385.292,630.204 735.898,630.204 1244.84,630.204 2291,630.204 243.919,662.738 306.123,662.738 385.292,662.738 735.898,662.738 1244.84,673.583 
  2291,673.583 306.123,695.272 385.292,695.272 243.919,695.272 735.898,695.272 1244.84,695.272 2262.73,695.272 243.919,619.36 735.898,619.36 1244.84,619.36 
  2291,619.36 1244.84,673.583 2291,673.583 243.919,673.583 385.292,673.583 735.898,673.583 266.539,673.583 266.539,814.562 385.292,814.562 266.539,803.718 
  385.292,803.718 266.539,771.184 385.292,771.184 266.539,782.028 385.292,782.028 266.539,771.184 385.292,771.184 266.539,749.495 385.292,749.495 385.292,738.65 
  266.539,738.65 266.539,792.873 385.292,792.873 266.539,749.495 385.292,749.495 266.539,559.715 735.898,559.715 735.898,684.427 385.292,559.715 243.919,559.715 
  735.898,559.715 243.919,559.715 243.919,684.427 735.898,684.427 385.292,559.715 243.919,684.427 385.292,559.715 266.539,559.715 735.898,559.715 
  735.898,684.427 266.539,559.715 385.292,684.427 266.539,559.715 266.539,684.427 243.919,684.427 385.292,684.427 243.919,684.427 
  385.292,559.715 266.539,684.427 243.919,684.427 266.539,559.715 243.919,684.427 735.898,559.715 266.539,559.715 266.539,684.427 385.292,684.427 385.292,559.715 
  385.292,684.427 385.292,559.715 735.898,684.427 266.539,684.427 243.919,559.715 735.898,684.427 243.919,559.715 266.539,684.427 
  243.919,559.715 735.898,559.715 385.292,684.427 266.539,559.715 385.292,559.715 243.919,559.715 
  243.919,684.427 735.898,684.427 266.539,684.427 385.292,684.427 243.919,559.715 735.898,684.427 243.919,684.427 735.898,684.427 
  385.292,559.715 735.898,559.715 266.539,684.427 243.919,684.427 266.539,684.427 735.898,559.715 266.539,684.427 243.919,559.715 266.539,559.715 735.898,559.715 
  243.919,684.427 266.539,684.427 385.292,684.427 735.898,684.427 905.546,684.427 243.919,684.427 266.539,684.427 385.292,684.427 735.898,684.427 
  905.546,684.427 243.919,684.427 266.539,684.427 385.292,684.427 735.898,684.427 905.546,684.427 266.539,749.495 385.292,749.495 266.539,749.495 385.292,749.495 
  266.539,749.495 385.292,684.427 735.898,684.427 385.292,749.495 266.539,749.495 385.292,760.339 232.609,597.671 243.919,597.671 266.539,597.671 306.123,597.671 
  385.292,597.671 266.539,890.474 306.123,890.474 385.292,890.474 735.898,890.474 1244.84,890.474 1753.79,890.474 266.539,565.137 306.123,565.137 385.292,565.137 
  543.63,565.137 735.898,565.137 1244.84,565.137 232.609,749.495 243.919,749.495 266.539,749.495 306.123,749.495 385.292,749.495 1244.84,684.427 2262.73,684.427 
  243.919,684.427 266.539,749.495 385.292,749.495 266.539,749.495 385.292,749.495 266.539,760.339 385.292,760.339 266.539,760.339 385.292,760.339 
  266.539,684.427 385.292,684.427 735.898,684.427 243.919,684.427 266.539,684.427 385.292,684.427 735.898,684.427 266.539,684.427 385.292,684.427 
  735.898,684.427 1244.84,684.427 2262.73,684.427 306.123,565.137 1244.84,565.137 1244.84,716.961 735.898,597.671 1244.84,597.671 1753.79,597.671 243.919,890.474 
  266.539,760.339 385.292,760.339 243.919,684.427 385.292,684.427 735.898,684.427 266.539,760.339 385.292,760.339 266.539,749.495 385.292,760.339 
  266.539,684.427 385.292,684.427 735.898,684.427 1244.84,684.427 2262.73,684.427 243.919,716.961 266.539,716.961 306.123,716.961 385.292,716.961 735.898,716.961 
  1753.79,716.961 306.123,565.137 385.292,565.137 1244.84,565.137 385.292,565.137 385.292,760.339 243.919,684.427 266.539,1183.28 385.292,1183.28 385.292,489.225 
  385.292,825.407 385.292,380.78 385.292,575.982 385.292,944.697 385.292,1053.14 385.292,445.847 385.292,706.116 385.292,868.785 385.292,597.671 
  385.292,944.697 385.292,641.049 385.292,955.541 385.292,879.629 385.292,586.826 385.292,706.116 385.292,695.272 385.292,901.319 385.292,662.738 385.292,792.873 
  385.292,814.562 385.292,565.137 385.292,749.495 385.292,489.225 385.292,727.806 385.292,879.629 385.292,673.583 385.292,825.407 385.292,749.495 385.292,803.718 
  385.292,923.008 385.292,792.873 385.292,196.422 385.292,847.096 385.292,489.225 385.292,651.894 385.292,944.697 385.292,782.028 385.292,814.562 385.292,641.049 
  385.292,673.583 385.292,857.94 385.292,586.826 385.292,87.9763 385.292,836.251 385.292,673.583 385.292,575.982 385.292,369.935 385.292,641.049 385.292,836.251 
  385.292,771.184 385.292,836.251 385.292,597.671 385.292,857.94 385.292,467.536 385.292,836.251 385.292,1053.14 385.292,608.515 385.292,836.251 385.292,651.894 
  385.292,380.78 385.292,955.541 385.292,608.515 385.292,782.028 385.292,695.272 385.292,912.163 385.292,836.251 385.292,944.697 385.292,792.873 385.292,803.718 
  385.292,879.629 385.292,684.427 385.292,651.894 385.292,673.583 385.292,814.562 385.292,836.251 385.292,825.407 385.292,1389.32 385.292,792.873 
  385.292,836.251 385.292,803.718 385.292,695.272 385.292,988.075 385.292,836.251 385.292,662.738 385.292,651.894 385.292,912.163 385.292,575.982 385.292,836.251 
  385.292,901.319 385.292,673.583 385.292,716.961 385.292,424.158 385.292,608.515 385.292,630.204 385.292,575.982 385.292,597.671 385.292,684.427 385.292,641.049 
  385.292,586.826 385.292,857.94 385.292,294.023 385.292,760.339 385.292,456.691 385.292,369.935 385.292,89.0607 385.292,830.829 385.292,670.329 385.292,570.559 
  385.292,365.597 385.292,644.302 385.292,830.829 385.292,766.846 385.292,830.829 385.292,594.417 385.292,860.109 385.292,472.958 385.292,830.829 385.292,1052.06 
  385.292,608.515 385.292,835.167 385.292,647.556 385.292,384.033 385.292,958.795 385.292,611.769 385.292,783.113 385.292,698.525 385.292,916.501 385.292,840.589 
  385.292,941.443 385.292,793.957 385.292,805.886 385.292,881.798 385.292,688.765 385.292,652.978 385.292,670.329 385.292,812.393 385.292,837.336 
  385.292,826.491 385.292,1386.07 385.292,793.957 385.292,835.167 385.292,799.38 385.292,699.61 385.292,992.413 385.292,830.829 385.292,664.907 385.292,652.978 
  385.292,909.994 385.292,579.235 385.292,835.167 385.292,905.656 385.292,670.329 385.292,721.299 385.292,492.479 385.292,827.576 385.292,379.695 385.292,577.066 
  385.292,950.119 385.292,946.866 385.292,1048.8 385.292,451.269 385.292,703.948 385.292,867.7 385.292,597.671 385.292,945.781 385.292,641.049 385.292,959.879 
  385.292,885.052 385.292,583.573 385.292,700.694 385.292,692.018 385.292,896.981 385.292,664.907 385.292,797.211 385.292,811.309 385.292,562.968 385.292,745.157 
  385.292,492.479 385.292,732.143 385.292,879.629 385.292,670.329 385.292,826.491 385.292,751.664 385.292,801.549 385.292,924.092 385.292,787.451 385.292,199.675 
  385.292,842.758 385.292,492.479 385.292,646.471 385.292,940.359 385.292,779.859 385.292,818.9 385.292,641.049 385.292,676.836 385.292,862.278 385.292,591.164 
  
  "></polyline>
<path clip-path="url(#clip380)" d="
M1985.16 198.898 L2280.03 198.898 L2280.03 95.2176 L1985.16 95.2176  Z
  " fill="#ffffff" fill-rule="evenodd" fill-opacity="1"></path>
<polyline clip-path="url(#clip380)" style="stroke:#000000; stroke-linecap:round; stroke-linejoin:round; stroke-width:4; stroke-opacity:1; fill:none" points="
  1985.16,198.898 2280.03,198.898 2280.03,95.2176 1985.16,95.2176 1985.16,198.898 
  "></polyline>
<polyline clip-path="url(#clip380)" style="stroke:#009af9; stroke-linecap:round; stroke-linejoin:round; stroke-width:4; stroke-opacity:1; fill:none" points="
  2009.41,147.058 2154.87,147.058 
  "></polyline>
<path clip-path="url(#clip380)" d="M2192.95 166.745 Q2191.15 171.375 2189.43 172.787 Q2187.72 174.199 2184.85 174.199 L2181.45 174.199 L2181.45 170.634 L2183.95 170.634 Q2185.71 170.634 2186.68 169.8 Q2187.65 168.967 2188.83 165.865 L2189.6 163.921 L2179.11 138.412 L2183.62 138.412 L2191.72 158.689 L2199.83 138.412 L2204.34 138.412 L2192.95 166.745 Z" fill="#000000" fill-rule="evenodd" fill-opacity="1"></path><path clip-path="url(#clip380)" d="M2211.63 160.402 L2219.27 160.402 L2219.27 134.037 L2210.96 135.703 L2210.96 131.444 L2219.22 129.778 L2223.9 129.778 L2223.9 160.402 L2231.54 160.402 L2231.54 164.338 L2211.63 164.338 L2211.63 160.402 Z" fill="#000000" fill-rule="evenodd" fill-opacity="1"></path></svg>